<svg height="512pt" viewBox="0 0 512 512.00031" width="512pt" xmlns="http://www.w3.org/2000/svg"><path d="m454.964844 333.011719c-67.195313 66.898437-173.988282 76.796875-252.878906 19.199219 0 .300781-66.195313 66.199218-80.898438 81.195312 3.300781 3.300781 29.101562 29.097656 31.800781 31.796875 5.699219 5.703125 5.699219 15 .296875 21 0 0-18.898437 18.597656-21.597656 21.296875-5.996094 6-15.296875 6-21.296875 0l-31.796875-31.796875c-3.300781 3.300781-29.097656 29.097656-31.800781 31.796875-5.699219 6-15.296875 6-21.296875 0l-20.996094-20.996094c-6-6-6-15.597656 0-21.300781 3.300781-3.296875 29.097656-29.097656 31.796875-31.796875-3.300781-3.300781-29.097656-29.097656-31.796875-31.796875-6-6-6-15.296875 0-21.300781 2.699219-2.996094 18.597656-18.898438 20.996094-21.296875 6-5.699219 15.601562-5.699219 21.300781 0l31.796875 31.796875c.300781 0 66.195312-65.894532 81.195312-80.894532-57.296874-77.992187-48.597656-185.085937 19.199219-252.878906 76.191407-76.195312 199.785157-75.894531 275.976563 0 76.195312 76.195313 75.894531 199.785156 0 275.976563zm0 0" fill="#ff637b"/><path d="m454.964844 333.011719c-67.195313 66.898437-173.988282 76.796875-252.878906 19.199219 0 .300781-66.195313 66.199218-80.898438 81.195312 3.300781 3.300781 29.101562 29.097656 31.800781 31.796875 5.699219 5.703125 5.699219 15 .296875 21 0 0-18.898437 18.597656-21.597656 21.296875-5.996094 6-15.296875 6-21.296875 0l-31.796875-31.796875c-3.300781 3.300781-29.097656 29.097656-31.800781 31.796875-5.699219 6-15.296875 6-21.296875 0l-10.496094-10.496094 439.964844-439.96875c76.195312 76.195313 75.894531 199.785156 0 275.976563zm0 0" fill="#e63950"/><path d="m412.371094 99.632812c-52.496094-52.796874-138.292969-52.796874-190.789063 0-52.792969 52.496094-52.792969 138.289063 0 190.785157 26.398438 26.398437 60.894531 39.597656 95.394531 39.597656s68.996094-13.199219 95.394532-39.597656c52.792968-52.496094 52.792968-138.289063 0-190.785157zm0 0" fill="#e1ebf0"/><path d="m412.371094 290.417969c-26.398438 26.398437-60.894532 39.597656-95.394532 39.597656s-68.996093-13.199219-95.394531-39.597656l190.789063-190.785157c52.792968 52.496094 52.792968 138.289063 0 190.785157zm0 0" fill="#b4d2d7"/><path d="m370.074219 141.929688c-18.898438-18.601563-50.398438-18.601563-70.496094 1.796874-13.796875 13.5-18.597656 34.199219-18.898437 55.199219-12-1.800781-23.699219-4.5-33.597657-7.5-7.800781-2.703125-16.199219 1.800781-18.597656 9.597657-2.699219 8.097656 1.796875 16.5 9.597656 18.898437 4.199219 1.199219 22.199219 6.601563 44.394531 9.601563 3.003907 22.195312 8.402344 40.195312 9.601563 44.394531 2.398437 7.800781 10.800781 12.296875 18.898437 9.597656 7.800782-2.398437 12.300782-10.796875 9.597657-18.597656-2.996094-9.898438-5.699219-21.597657-7.5-33.597657 21-.601562 41.699219-5.101562 55.199219-18.898437 19.496093-19.496094 21.296874-50.996094 1.800781-70.492187zm-22.800781 49.496093c-7.199219 6.898438-20.699219 9.597657-36.597657 9.898438.300781-15.898438 3-29.398438 9.902344-36.597657 9.898437-9.597656 21.296875-7.800781 28.195313-1.5 6.601562 6.597657 8.402343 18.296876-1.5 28.199219zm0 0" fill="#ff637b"/><path d="m368.273438 212.421875c-13.5 13.800781-34.195313 18.300781-55.195313 18.898437 1.796875 12 4.5 23.699219 7.5 33.597657 2.699219 7.800781-1.800781 16.199219-9.601563 18.601562-8.097656 2.699219-16.5-1.800781-18.898437-9.601562-1.199219-4.199219-6.597656-22.199219-9.597656-44.394531l28.195312-28.199219c15.902344-.300781 29.398438-3 36.597657-9.898438 9.902343-9.902343 8.101562-21.601562 1.5-28.199219l21.300781-21.296874c19.496093 19.496093 17.695312 50.996093-1.800781 70.492187zm0 0" fill="#e63950"/></svg>