<svg id="Layer_35" enable-background="new 0 0 64 64" height="512" viewBox="0 0 64 64" width="512" xmlns="http://www.w3.org/2000/svg"><path d="m35 25h4v2h-4z"/><path d="m31 21h2v10h-2z"/><path d="m34.637 10h-5.273c-1.855 0-3.364 1.509-3.364 3.363 0 .324.047.648.141.963l1.364 4.573c.333 1.329.495 2.649.495 3.971 0 .044-.004.086-.005.13h1.005v-4h6v4h1.005c0-.044-.005-.086-.005-.13 0-1.322.162-2.643.482-3.927l1.378-4.619c.093-.312.14-.637.14-.961 0-1.854-1.509-3.363-3.363-3.363z"/><ellipse cx="11" cy="21" rx="5" ry="4"/><path d="m29 29h-2.218c-1.225 3-3.278 5.532-5.992 7.342l-1.728 1.152c.43 1.921 3.306 4.179 7.938 6.238v-12.732h2z"/><path d="m25 25h4v2h-4z"/><path d="m29 58c0 1.654 1.346 3 3 3s3-1.346 3-3v-25h-6z"/><ellipse cx="53" cy="21" rx="5" ry="4"/><path d="m52 3c-3.24 0-6.245 1.76-7.842 4.593l-.638 1.132-.932-.907c-2.451-2.391-6.41-3.818-10.588-3.818s-8.137 1.427-10.589 3.817l-.932.907-.638-1.132c-1.596-2.832-4.601-4.592-7.841-4.592-4.963 0-9 4.037-9 9 0 2.121.763 4.161 2.109 5.772.394-.526.876-.999 1.436-1.396-1.036-1.288-1.593-2.899-1.542-4.591.113-3.741 3.364-6.785 7.249-6.785 2.693 0 5.115 1.496 6.319 3.905l.891 1.782c1.66 3.322 2.538 7.04 2.538 10.752 0 2.808-.485 5.566-1.442 8.198-.531 1.462-1.138 3.432-1.411 5.396l.534-.356c2.147-1.431 3.822-3.379 4.919-5.678h-1.6v-6h2.995c0-.043.005-.086.005-.13 0-1.159-.143-2.317-.424-3.442l-1.353-4.531c-.148-.5-.223-1.015-.223-1.533 0-2.957 2.406-5.363 5.363-5.363h5.273c2.958 0 5.364 2.406 5.364 5.363 0 .518-.075 1.032-.223 1.531l-1.366 4.577c-.268 1.082-.411 2.24-.411 3.399 0 .044.004.086.005.13h2.995v6h-1.6c1.097 2.299 2.772 4.246 4.919 5.678l.534.356c-.273-1.964-.88-3.934-1.411-5.396-.957-2.632-1.442-5.391-1.442-8.199 0-3.713.878-7.431 2.538-10.752l.891-1.782c1.204-2.409 3.626-3.905 6.319-3.905 3.885 0 7.136 3.044 7.249 6.785.051 1.692-.506 3.303-1.542 4.591.56.397 1.042.87 1.436 1.396 1.346-1.611 2.109-3.651 2.109-5.772 0-4.963-4.037-9-9-9z"/><path d="m37.218 29h-2.218v2h2v12.732c4.632-2.059 7.508-4.317 7.938-6.238l-1.728-1.152c-2.714-1.81-4.767-4.342-5.992-7.342z"/></svg>