<svg xmlns="http://www.w3.org/2000/svg" xmlns:xlink="http://www.w3.org/1999/xlink" version="1.1" x="0px" y="0px" viewBox="0 0 154.232 290.78125" style="enable-background:new 0 0 154.232 232.625;" xml:space="preserve"><g><path d="M77.068,34.875c0,12.427,10.074,22.5,22.5,22.5c12.428,0,22.5-10.073,22.5-22.5c0-5.991-2.346-11.431-6.164-15.463   c1.075,0.107,2.289,0.346,3.629,0.774c1.469,0.469,3.082,1.158,4.839,2.179c0.157,0.092,0.33,0.135,0.501,0.135   c0.345,0,0.68-0.178,0.865-0.498c0.278-0.478,0.115-1.089-0.362-1.367c-3.055-1.775-5.763-2.661-8.049-3.045   c-1.372-0.23-2.589-0.279-3.638-0.227c-1.105-0.892-2.296-1.682-3.559-2.355c0.771-0.395,1.663-0.773,2.687-1.08   c1.782-0.535,3.943-0.858,6.487-0.68c0.577,0.032,1.028-0.376,1.067-0.927s-0.376-1.029-0.927-1.068   c-3.675-0.256-6.645,0.44-8.917,1.384c-1.013,0.42-1.888,0.885-2.618,1.343c-2.044-0.817-4.236-1.341-6.525-1.524   c0.226-0.67,0.533-1.419,0.947-2.221c1.299-2.516,3.661-5.562,7.967-8.398c0.462-0.304,0.589-0.924,0.285-1.385   s-0.924-0.589-1.385-0.285c-5.084,3.348-7.694,6.995-9.036,9.925c-0.38,0.829-0.659,1.601-0.863,2.292   c-1.461,0.017-2.89,0.168-4.271,0.451c-0.023-0.824-0.081-1.596-0.177-2.303c-0.66-4.88-2.788-7.008-2.909-7.124   c-0.396-0.381-1.021-0.368-1.404,0.021c-0.385,0.392-0.379,1.023,0.01,1.411c0.024,0.024,1.801,1.866,2.341,6.157   c0.09,0.712,0.143,1.494,0.151,2.344c-0.947,0.287-1.865,0.636-2.755,1.04c-0.312-0.633-0.692-1.299-1.15-1.996   c-1.181-1.798-2.877-3.78-5.353-5.822c-0.426-0.353-1.058-0.29-1.407,0.135c-0.352,0.426-0.291,1.057,0.136,1.408   c2.228,1.837,3.759,3.61,4.829,5.207c0.468,0.698,0.849,1.361,1.153,1.98c-1.773,1.005-3.399,2.238-4.83,3.669   c-0.675-0.308-1.469-0.603-2.365-0.836c-2.041-0.531-4.599-0.717-7.48,0.16c-0.528,0.161-0.826,0.719-0.666,1.248   c0.161,0.528,0.72,0.828,1.248,0.666c2.039-0.62,3.886-0.615,5.451-0.343c0.898,0.156,1.699,0.398,2.388,0.669   C79.01,24.419,77.068,29.42,77.068,34.875z"/><path d="M26.388,86.353c0.025-0.021,1.887-1.529,4.782-2.113c-0.033,0.056-0.07,0.108-0.102,0.165   c-1.79,3.267-1.054,7.231,1.542,9.668c-4.347,2.624-7.048,5.593-7.272,5.844c-0.367,0.412-0.331,1.043,0.08,1.411   c0.19,0.17,0.429,0.254,0.666,0.254c0.274,0,0.548-0.112,0.746-0.333c0.055-0.062,2.969-3.26,7.611-5.875   c2.801,1.526,6.418,3.314,10.304,4.775c-0.029,1.349-0.102,2.762-0.241,4.258c-0.051,0.55,0.354,1.037,0.903,1.088   c0.031,0.003,0.063,0.004,0.094,0.004c0.511,0,0.946-0.389,0.995-0.907c0.121-1.298,0.196-2.539,0.236-3.732   c3.699,1.243,7.547,2.109,11.096,2.109c2.556,0,4.956-0.449,7.031-1.529c3.602-1.875,5.905-5.37,6.369-9.589   c1.268-11.524,3.901-19.111,5.901-24.006v33.075v18.94v98c0,6.83,5.673,12.363,12.499,12.363c6.828,0,12.501-5.533,12.501-12.363   v-90.308h4v90.308c0,6.83,5.673,12.363,12.499,12.363c6.828,0,12.501-5.533,12.501-12.363v-98v-18.94V67.834   c5,9.298,8.528,28.029,6.472,63.166c-0.258,4.411,3.146,8.196,7.557,8.454c0.159,0.009,0.335,0.014,0.494,0.014   c4.204,0,7.739-3.281,7.988-7.533c2.472-42.248-2.808-69.811-15.7-81.925c-5.633-5.293-11.134-6.281-13.939-6.34   c-0.15-0.009-0.297-0.116-0.449-0.116h-0.829c-3.576,9-12.604,16.028-23.156,16.028c-9.873,0-18.415-5.754-22.402-14.125   c-1.557,0.702-3.222,1.696-4.923,3.044c-8.457,6.704-13.996,19.574-16.483,38.255c-3.158-0.684-8.251-2.635-12.672-4.921   c-2.286-4.317-4.83-6.039-5.042-6.176c-0.462-0.301-1.081-0.168-1.384,0.295c-0.301,0.463-0.169,1.083,0.294,1.384   c0.035,0.023,1.366,0.925,2.919,3.121c-2.4-0.552-4.917,0.038-6.811,1.565c-4.68,0.12-7.808,2.671-7.954,2.792   c-0.423,0.353-0.479,0.981-0.128,1.405C25.333,86.645,25.962,86.703,26.388,86.353z"/><path d="M35.896,140.519c0.116,0.044,0.236,0.065,0.354,0.065c0.404,0,0.784-0.247,0.936-0.647   c3.285-8.705,4.168-17.994,2.146-22.589c-0.221-0.504-0.811-0.735-1.317-0.513c-0.506,0.223-0.735,0.813-0.513,1.318   c1.543,3.507,1.287,11.873-2.188,21.077C35.119,139.747,35.38,140.324,35.896,140.519z"/><path d="M29.235,156.44c1.931,1.158,3.003,2.569,3.188,4.194c0.404,3.545-3.329,7.192-3.367,7.228   c-0.397,0.383-0.409,1.016-0.026,1.414c0.196,0.204,0.458,0.307,0.721,0.307c0.249,0,0.498-0.093,0.691-0.279   c0.184-0.176,4.48-4.358,3.97-8.888c-0.258-2.279-1.652-4.194-4.147-5.69c-7.421-4.453-1.357-16.226-1.296-16.344   c0.257-0.489,0.069-1.093-0.42-1.35c-0.486-0.257-1.093-0.07-1.35,0.419C24.741,142.121,22.003,152.101,29.235,156.44z"/><path d="M14.792,216.159c0.112-0.051,8.514-3.805,18.426-1.875c-3.014,0.729-4.959,1.521-5.187,1.615   c-0.51,0.213-0.75,0.799-0.537,1.308c0.213,0.511,0.801,0.749,1.309,0.538c0.074-0.031,3.628-1.481,8.78-2.236   c1.869,0.69,3.756,1.607,5.619,2.827c0.169,0.111,0.359,0.164,0.547,0.164c0.326,0,0.646-0.159,0.838-0.452   c0.302-0.462,0.173-1.082-0.289-1.384c-0.881-0.577-1.764-1.091-2.648-1.551c5.129-0.251,11.136,0.438,16.744,3.515   c0.153,0.083,0.318,0.123,0.48,0.123c0.354,0,0.695-0.188,0.878-0.519c0.266-0.484,0.088-1.092-0.396-1.358   c-7.519-4.125-15.545-4.279-21.596-3.448c-12.163-4.288-23.257,0.665-23.803,0.916c-0.502,0.23-0.723,0.824-0.492,1.326   C13.696,216.169,14.292,216.388,14.792,216.159z"/><path d="M36.458,222.043c-0.528,0.161-0.825,0.72-0.664,1.249c0.16,0.527,0.716,0.826,1.248,0.665   c0.14-0.043,14.179-4.189,21.67,5.409c0.197,0.253,0.491,0.385,0.789,0.385c0.215,0,0.432-0.069,0.614-0.212   c0.436-0.339,0.513-0.968,0.173-1.403C51.962,217.467,37.087,221.851,36.458,222.043z"/><path d="M1.595,227.429c0.521-0.386,12.062-8.727,20.74-0.735c-6.078,0.91-10.364,4.078-10.438,4.134   c-0.44,0.333-0.526,0.959-0.193,1.399c0.196,0.26,0.495,0.397,0.798,0.397c0.21,0,0.422-0.066,0.602-0.202   c0.297-0.223,4.756-3.499,10.872-3.967c0.078,0.096,0.158,0.182,0.235,0.282c0.197,0.254,0.492,0.387,0.791,0.387   c0.214,0,0.43-0.068,0.612-0.21c0.171-0.133,0.269-0.314,0.327-0.507c3.352,0.095,7.081,1.114,10.84,3.896   c0.445,0.329,1.07,0.234,1.398-0.209c0.329-0.444,0.235-1.07-0.209-1.398c-4.533-3.355-9.068-4.353-13.058-4.235   c-9.973-11.189-24.36-0.75-24.508-0.64c-0.443,0.329-0.536,0.954-0.208,1.398C0.525,227.664,1.151,227.755,1.595,227.429z"/></g><text x="0" y="247.625" fill="#000000" font-size="5px" font-weight="bold" font-family="'Helvetica Neue', Helvetica, Arial-Unicode, Arial, Sans-serif">Created by Gan Khoon Lay</text><text x="0" y="252.625" fill="#000000" font-size="5px" font-weight="bold" font-family="'Helvetica Neue', Helvetica, Arial-Unicode, Arial, Sans-serif">from the Noun Project</text></svg>