<svg height="485pt" viewBox="-5 0 485 485.512" width="485pt" xmlns="http://www.w3.org/2000/svg"><path d="m343.007812 271.148438-13.851562-85.601563c-.097656.003906-.1875.027344-.289062.027344h-26.863282c-33.167968 0-61.644531-20.0625-73.976562-48.710938-14.429688 19.597657-37.65625 32.320313-63.863282 32.320313h-138.640624l-16.472657 101.808594-.039062.15625c-3.15625 11.882812-4.753907 24.105468-4.753907 36.378906v.003906c0 30.101562 25.1875 54.507812 56.261719 54.507812h230.976563c31.074218 0 56.265625-24.402343 56.265625-54.507812v-.003906c0-12.273438-1.601563-24.496094-4.753907-36.378906zm0 0" fill="#4671c6"/><path d="m291.496094 366.039062h-230.976563c-33.230469 0-60.261719-26.246093-60.261719-58.507812 0-12.601562 1.636719-25.175781 4.875-37.375l16.441407-101.609375c.3125-1.9375 1.984375-3.363281 3.949219-3.363281h138.640624c23.820313 0 46.492188-11.472656 60.644532-30.695313.847656-1.152343 2.25-1.761719 3.675781-1.601562 1.421875.164062 2.652344 1.074219 3.21875 2.390625 12.101563 28.125 39.699219 46.296875 70.300781 46.296875h26.65625c.101563-.011719.199219-.019531.296875-.023438 2.035157-.074219 3.824219 1.34375 4.148438 3.355469l13.816406 85.40625c3.207031 12.148438 4.835937 24.664062 4.835937 37.210938 0 32.269531-27.03125 58.515624-60.261718 58.515624zm-262.566406-192.855468-15.933594 98.449218c-.019532.132813-.046875.261719-.082032.394532-3.105468 11.6875-4.65625 23.582031-4.65625 35.5 0 27.855468 23.441407 50.511718 52.261719 50.511718h230.976563c28.816406 0 52.265625-22.65625 52.265625-50.507812 0-11.925781-1.554688-23.820312-4.621094-35.355469-.035156-.128906-.0625-.257812-.082031-.390625l-13.300782-82.210937h-23.75c-31.613281 0-60.316406-17.550781-74.839843-45.230469-15.738281 18.164062-38.832031 28.839844-63 28.839844zm0 0" fill="#3762cc"/><path d="m319.746094 459.410156c-.023438-.472656-.0625-.941406-.089844-1.414062-.054688-.914063-.117188-1.824219-.203125-2.730469-.050781-.566406-.117187-1.128906-.179687-1.691406-.089844-.796875-.183594-1.597657-.296876-2.390625-.082031-.609375-.175781-1.210938-.269531-1.8125-.117187-.734375-.246093-1.464844-.382812-2.191406-.117188-.636719-.234375-1.269532-.367188-1.898438-.140625-.667969-.296875-1.328125-.449219-1.988281-.15625-.671875-.308593-1.34375-.480468-2.011719-.140625-.542969-.296875-1.074219-.445313-1.613281-.808593-2.917969-1.761719-5.777344-2.851562-8.566407-.089844-.234374-.175781-.472656-.269531-.707031-.367188-.921875-.761719-1.832031-1.160157-2.738281-.109375-.257812-.222656-.511719-.335937-.765625-.414063-.925781-.847656-1.835937-1.292969-2.742187-.101563-.199219-.203125-.402344-.304687-.605469-.480469-.957031-.976563-1.90625-1.492188-2.847657-.046875-.082031-.09375-.164062-.140625-.25-14.671875-26.5625-42.449219-44.875-74.621094-46.183593l-.222656.28125h.164063l-10.503907 27.671875c-2.53125 6.667968-8.921875 11.078125-16.058593 11.078125h-62.96875c-7.136719 0-13.527344-4.410157-16.058594-11.078125l-9.121094-24.027344c-.636719-1.144531-1.109375-2.371094-1.382812-3.648438v-.003906c-25.347657 2.234375-47.652344 15.042969-62.492188 33.980469h-.011719c-.058593.070313-.109375.144531-.164062.21875-.484375.621094-.953125 1.253906-1.421875 1.890625-.292969.394531-.582032.785156-.863282 1.183594-.445312.625-.878906 1.253906-1.308593 1.890625-.289063.425781-.574219.855469-.851563 1.289062-.410156.628907-.8125 1.261719-1.203125 1.902344-.28125.457031-.554687.917969-.828125 1.378906-.375.632813-.746094 1.269531-1.105468 1.914063-.269532.488281-.527344.976562-.789063 1.46875-.34375.636718-.683594 1.277344-1.011719 1.921875-.261718.523437-.503906 1.050781-.757812 1.574219-.300782.636718-.609375 1.265624-.898438 1.90625-.28125.625-.539062 1.261718-.808594 1.898437-.425781 1.011719-.832031 2.03125-1.222656 3.0625-.265625.699219-.535156 1.402344-.785156 2.113281-.199219.5625-.375 1.132813-.558594 1.699219-.226562.6875-.453125 1.371094-.660156 2.066406-.171875.574219-.328125 1.15625-.492188 1.734375-.191406.699219-.386718 1.398438-.566406 2.105469-.144531.582031-.28125 1.164063-.414062 1.75-.167969.722656-.324219 1.449219-.472656 2.175781-.121094.578125-.230469 1.15625-.335938 1.738282-.140625.753906-.265625 1.507812-.386719 2.269531-.085937.566406-.175781 1.132812-.253906 1.703125-.109375.804687-.203125 1.609375-.292969 2.421875-.058594.535156-.121094 1.070312-.171875 1.605469-.082031.902343-.140625 1.8125-.195312 2.71875-.027344.457031-.066407.910156-.089844 1.367187-.0625 1.371094-.097656 2.742187-.097656 4.128906v17.902344h283.390625v-17.902344c.011718-1.410156-.027344-2.808593-.09375-4.203125zm0 0" fill="#6bdddd"/><path d="m132.671875 413.296875h86.675781l14.707032-38.75h-.09375c.25-1.007813.421874-2.035156.421874-3.085937v-24.339844c-17.46875 9.09375-37.3125 14.25-58.371093 14.25-21.058594 0-40.902344-5.15625-58.371094-14.25v24.414062c0 1.023438.164063 2.023438.402344 3.003906h-.078125zm0 0" fill="#f9cfcf"/><path d="m303.476562 186.519531c-.269531 0-.53125.03125-.800781.039063v-11.96875c0-69.957032-56.710937-126.664063-126.664062-126.664063-69.957031 0-126.667969 56.707031-126.667969 126.664063v11.96875c-.269531-.007813-.53125-.039063-.800781-.039063-21.339844 0-38.644531 17.300781-38.644531 38.640625 0 21.34375 17.304687 38.644532 38.644531 38.644532 1.402343 0 2.78125-.082032 4.148437-.230469 13.070313 56.039062 63.300782 97.796875 123.320313 97.796875s110.25-41.757813 123.324219-97.796875c1.363281.148437 2.742187.230469 4.144531.230469 21.339843 0 38.644531-17.300782 38.644531-38.644532-.003906-21.339844-17.308594-38.640625-38.648438-38.640625zm0 0" fill="#f9cfcf"/><path d="m176.007812 365.371094c-59.90625 0-111.40625-39.957032-126.402343-97.578125-24.003907.640625-43.710938-18.761719-43.710938-42.632813 0-22.4375 17.421875-40.882812 39.449219-42.523437v-8.046875c0-72.050782 58.617188-130.664063 130.664062-130.664063 72.046876 0 130.667969 58.617188 130.667969 130.664063v8.046875c22.023438 1.640625 39.445313 20.085937 39.445313 42.523437 0 23.515625-19.132813 42.644532-42.644532 42.644532-.355468 0-.710937-.003907-1.066406-.011719-14.996094 57.625-66.496094 97.578125-126.402344 97.578125zm-123.316406-105.792969c1.835938 0 3.464844 1.265625 3.890625 3.09375 13.007813 55.757813 62.117188 94.699219 119.425781 94.699219 57.308594 0 106.421876-38.941406 119.425782-94.699219.457031-1.96875 2.335937-3.289063 4.320312-3.070313 1.296875.136719 2.515625.203126 3.71875.203126 19.105469 0 34.644532-15.539063 34.644532-34.644532 0-19.097656-15.535157-34.632812-34.628907-34.640625-.351562.023438-.539062.035157-.726562.039063-1.09375.027344-2.117188-.386719-2.882813-1.140625-.769531-.753907-1.203125-1.785157-1.203125-2.859375v-11.96875c0-67.636719-55.03125-122.664063-122.667969-122.664063-67.636718 0-122.664062 55.027344-122.664062 122.664063v11.96875c0 1.074218-.4375 2.105468-1.203125 2.859375-.769531.753906-1.839844 1.167969-2.882813 1.140625-.191406-.003906-.378906-.015625-.566406-.03125-.003906 0-.011718 0-.019531 0-19.242187 0-34.773437 15.535156-34.773437 34.632812 0 19.105469 15.542968 34.644532 34.644531 34.644532 1.203125 0 2.421875-.066407 3.722656-.203126.140625-.015624.28125-.023437.425781-.023437zm0 0" fill="#3762cc"/><path d="m319.851562 485.511719h-283.390624c-2.207032 0-4-1.792969-4-4v-17.898438c0-1.449219.035156-2.882812.101562-4.3125.015625-.308593.039062-.621093.058594-.933593l.03125-.488282c.058594-.953125.121094-1.90625.207031-2.847656.039063-.414062.085937-.828125.128906-1.242188l.050781-.433593c.089844-.84375.1875-1.6875.300782-2.527344.085937-.597656.175781-1.191406.269531-1.78125.121094-.792969.253906-1.585937.402344-2.375.109375-.605469.226562-1.210937.351562-1.816406.152344-.757813.320313-1.511719.492188-2.269531.140625-.613282.28125-1.21875.433593-1.824219.1875-.746094.390626-1.480469.59375-2.210938l.078126-.289062c.140624-.507813.28125-1.015625.429687-1.515625.199219-.660156.410156-1.3125.625-1.964844l.226563-.703125c.136718-.421875.277343-.847656.421874-1.269531.214844-.613282.441407-1.214844.671876-1.820313l.148437-.390625c.40625-1.078125.832031-2.144531 1.28125-3.203125l.199219-.476562c.210937-.503907.421875-1.007813.644531-1.503907.230469-.511718.472656-1.019531.714844-1.527343l.425781-.882813c.195312-.410156.386719-.820312.589844-1.222656.320312-.636719.652344-1.261719.988281-1.890625l.15625-.289063c.242187-.457031.484375-.914062.738281-1.367187.371094-.664063.757813-1.332031 1.148438-1.996094.285156-.480469.574218-.960937.863281-1.4375.414063-.671875.832031-1.332031 1.257813-1.988281.292968-.453125.59375-.902344.894531-1.347656.441406-.660156.894531-1.320313 1.359375-1.972656.226562-.316407.457031-.628907.691406-.945313l.210938-.285156c.488281-.667969.980468-1.328125 1.484374-1.980469l.167969-.222656c.058594-.074219.113281-.144532.175781-.207032 15.082032-19.136718 37.183594-31.691406 61.15625-34.859374v-23.871094c0-1.398438.730469-2.695313 1.925782-3.421875 1.199218-.722657 2.683594-.769531 3.921875-.128907 17.585937 9.160157 36.605469 13.800782 56.523437 13.800782 19.921875 0 38.9375-4.640625 56.523438-13.800782 1.238281-.640624 2.726562-.59375 3.921875.128907 1.195312.726562 1.921875 2.023437 1.921875 3.421875v23.40625c30.777344 2.648437 58.808594 20.757812 73.859375 47.988281l.152343.28125c.527344.960937 1.046876 1.957031 1.550782 2.957031l.300781.601563c.480469.980469.933594 1.929687 1.367187 2.894531l.347657.785156c.421875.960938.832031 1.914063 1.21875 2.878906l.285156.738282c1.132813 2.90625 2.136719 5.914062 2.976563 8.949218l.144531.515626c.109375.390624.21875.777343.320312 1.167968.152344.589844.292969 1.191406.429688 1.789063l.070312.3125c.160157.6875.320313 1.378906.464844 2.070312.136719.671875.265625 1.332031.386719 1.996094.140625.75.273437 1.511719.398437 2.277344.101563.644531.199219 1.273437.285157 1.90625.117187.824219.214843 1.660156.308593 2.496093l.039063.332032c.050781.480468.109375.960937.152344 1.445312.085937.933594.148437 1.886719.207031 2.84375l.09375 1.460938c.003906.003906.003906.007812.003906.011718.066406 1.457032.109375 2.917969.109375 4.390626v17.898437c.007812 2.207031-1.785156 3.996094-3.992188 3.996094zm-279.390624-8h275.390624v-13.898438c0-1.34375-.039062-2.675781-.097656-4.003906l-.089844-1.367187c-.054687-.875-.113281-1.746094-.195312-2.609376-.039062-.433593-.085938-.855468-.132812-1.273437l-.039063-.339844c-.085937-.761719-.175781-1.523437-.28125-2.28125-.082031-.585937-.171875-1.164062-.261719-1.742187-.113281-.6875-.234375-1.382813-.367187-2.082032-.113281-.617187-.226563-1.21875-.351563-1.820312-.132812-.625-.277344-1.257812-.425781-1.894531l-.074219-.320313c-.125-.535156-.246094-1.070312-.382812-1.597656-.085938-.335938-.179688-.660156-.273438-.988281l-.15625-.558594c-.765625-2.769531-1.679687-5.519531-2.71875-8.175781l-.253906-.664063c-.359375-.890625-.730469-1.761719-1.113281-2.628906l-.320313-.71875c-.402344-.894531-.8125-1.765625-1.242187-2.632813l-.28125-.5625c-.464844-.925781-.9375-1.832031-1.429688-2.726562l-.160156-.289062c-14.179687-25.664063-41.039063-42.480469-70.246094-44.03125-.886719.226562-1.84375.148437-2.710937-.273438-1.699219-.816406-2.597656-2.707031-2.15625-4.539062.195312-.8125.285156-1.457032.285156-2.03125v-17.9375c-16.964844 7.765624-35.628906 11.847656-54.367188 11.847656-18.742187 0-37.40625-4.082032-54.375-11.847656v18.011718c0 .589844.09375 1.25.292969 2.070313.285157 1.191406.011719 2.445312-.75 3.410156-.734375.929687-1.839843 1.488281-3.019531 1.523437-23.324219 2.097657-45.019531 13.917969-59.542969 32.449219-.039062.050781-.082031.101563-.125.148438l-.042969.0625c-.460937.585937-.90625 1.195312-1.355468 1.800781l-.824219 1.128906c-.425781.597656-.835937 1.199219-1.246094 1.804688-.28125.414062-.550781.824218-.820312 1.234375-.386719.601562-.769531 1.203125-1.148438 1.816406-.265625.4375-.53125.878906-.789062 1.320313-.355469.601562-.710938 1.210937-1.050781 1.824218-.230469.410156-.445313.816406-.664063 1.226563 0 0-.089844.175781-.09375.175781-.371094.695312-.671875 1.261719-.964844 1.839844-.171875.347656-.339843.699218-.507812 1.054687l-.445313.933594c-.210937.441406-.425781.882813-.628906 1.332031-.191406.429688-.375.867188-.554688 1.304688l-.210937.507812c-.410156.96875-.796875 1.941406-1.171875 2.925782l-.152344.394531c-.203125.539062-.40625 1.078125-.597656 1.625-.125.355469-.242188.71875-.359375 1.082031l-.238281.742188c-.191406.585937-.386719 1.175781-.566406 1.769531-.132813.449219-.257813.898437-.378907 1.347656l-.085937.304687c-.1875.675782-.371094 1.339844-.542969 2.015626-.136719.550781-.265625 1.109374-.398437 1.671874-.15625.6875-.308594 1.378907-.449219 2.074219-.113281.554688-.222657 1.105469-.324219 1.660157-.132812.722656-.25 1.445312-.363281 2.171874-.085938.539063-.171875 1.082032-.246094 1.625-.105469.765626-.195313 1.535157-.277344 2.308594l-.050781.460938c-.042969.359375-.082031.714844-.113281 1.078125-.082031.867187-.132813 1.734375-.1875 2.601562l-.085938 1.300781c-.058593 1.3125-.09375 2.625-.09375 3.953126v13.894531zm0 0" fill="#3762cc"/><path d="m176.007812 299.863281c-17.71875 0-31.601562-9.839843-31.601562-22.402343 0-2.207032 1.792969-4 4-4 2.210938 0 4 1.792968 4 4 0 7.808593 10.808594 14.402343 23.601562 14.402343 12.792969 0 23.601563-6.59375 23.601563-14.402343 0-2.207032 1.789063-4 4-4 2.207031 0 4 1.792968 4 4 0 12.5625-13.882813 22.402343-31.601563 22.402343zm0 0" fill="#3762cc"/><path d="m235.230469 27.015625h-13.734375v1.539063c-14.433594-15.121094-34.773438-24.558594-57.328125-24.558594h-24.878907c-67.324218 0-121.902343 54.578125-121.902343 121.902344v39.8125c0 1.917968 1.558593 3.476562 3.476562 3.476562h143.304688c26.207031 0 49.433593-12.726562 63.863281-32.324219 12.328125 28.652344 40.804688 48.714844 73.976562 48.714844h26.863282c3.691406 0 6.6875-2.992187 6.6875-6.6875v-51.546875c0-55.410156-44.917969-100.328125-100.328125-100.328125zm0 0" fill="#4671c6"/><g fill="#3762cc"><path d="m328.871094 189.574219h-26.867188c-31.609375 0-60.3125-17.550781-74.839844-45.230469-15.734374 18.167969-38.828124 28.839844-63 28.839844h-143.300781c-4.121093 0-7.472656-3.351563-7.472656-7.472656v-39.8125c0-69.421876 56.476563-125.898438 125.898437-125.898438h24.878907c21.644531 0 41.890625 8.144531 57.445312 23.015625h13.617188c57.527343 0 104.328125 46.800781 104.328125 104.328125v51.542969c0 5.894531-4.796875 10.6875-10.6875 10.6875zm-100.84375-56.710938c.152344 0 .304687.007813.457031.023438 1.421875.164062 2.652344 1.078125 3.21875 2.394531 12.101563 28.121094 39.699219 46.292969 70.300781 46.292969h26.867188c1.480468 0 2.6875-1.203125 2.6875-2.6875v-51.542969c0-53.117188-43.210938-96.328125-96.328125-96.328125h-10.582031c-.425782.542969-.996094.984375-1.667969 1.253906-1.515625.605469-3.25.230469-4.378907-.953125-14.355468-15.039062-33.6875-23.320312-54.433593-23.320312h-24.878907c-65.011718 0-117.898437 52.886718-117.898437 117.898437v39.289063h142.777344c23.820312 0 46.488281-11.476563 60.640625-30.699219.757812-1.023437 1.957031-1.621094 3.21875-1.621094zm0 0"/><path d="m113.472656 243.816406c-7.289062 0-13.21875-5.929687-13.21875-13.214844v-22.03125c0-7.289062 5.929688-13.21875 13.21875-13.21875 7.289063 0 13.214844 5.929688 13.214844 13.21875v22.03125c.003906 7.285157-5.925781 13.214844-13.214844 13.214844zm0 0"/><path d="m238.542969 243.816406c-7.285157 0-13.214844-5.929687-13.214844-13.214844v-22.03125c0-7.289062 5.929687-13.21875 13.214844-13.21875 7.292969 0 13.21875 5.929688 13.21875 13.21875v22.03125c0 7.285157-5.929688 13.214844-13.21875 13.214844zm0 0"/><path d="m122.074219 307.515625c-1.472657 0-2.757813-1.085937-2.964844-2.585937-4.75-33.796876 16.070313-45.855469 16.957031-46.351563 1.449219-.808594 3.277344-.292969 4.085938 1.15625.804687 1.441406.292968 3.265625-1.144532 4.074219-.777343.445312-18.105468 10.757812-13.957031 40.289062.230469 1.640625-.914062 3.160156-2.554687 3.386719-.144532.019531-.285156.03125-.421875.03125zm0 0"/><path d="m229.941406 307.515625c-.136718 0-.28125-.007813-.417968-.03125-1.640626-.230469-2.785157-1.75-2.554688-3.386719 4.152344-29.558594-13.21875-39.867187-13.957031-40.289062-1.433594-.820313-1.941407-2.648438-1.128907-4.085938s2.625-1.949218 4.066407-1.144531c.890625.496094 21.707031 12.554687 16.960937 46.351563-.210937 1.5-1.496094 2.585937-2.96875 2.585937zm0 0"/></g><path d="m465.121094 198.960938h-146.230469c-3.800781 0-6.882813-3.082032-6.882813-6.886719v-3.679688c0-3.800781 3.082032-6.882812 6.882813-6.882812h146.230469c3.804687 0 6.886718 3.082031 6.886718 6.882812v3.679688c0 3.804687-3.082031 6.886719-6.886718 6.886719zm0 0" fill="#f9a7a7"/><path d="m318.894531 464.066406h146.230469c3.800781 0 6.886719 3.082032 6.886719 6.886719v3.675781c0 3.804688-3.082031 6.886719-6.886719 6.886719h-146.230469c-3.800781 0-6.886719-3.082031-6.886719-6.886719v-3.675781c0-3.804687 3.082032-6.886719 6.886719-6.886719zm0 0" fill="#f9a7a7"/><path d="m460.40625 263.734375v-59.839844c0-2.722656-2.339844-4.933593-5.222656-4.933593h-126.347656c-2.886719 0-5.226563 2.210937-5.226563 4.933593v59.839844c0 25.144531 16.210937 46.710937 39.300781 55.898437 5.046875 2.007813 8.300782 6.707032 8.300782 11.878907s-3.253907 9.871093-8.300782 11.878906c-23.089844 9.1875-39.300781 30.753906-39.300781 55.898437v59.839844c0 2.726563 2.339844 4.933594 5.226563 4.933594h126.347656c2.882812 0 5.222656-2.207031 5.222656-4.933594v-59.839844c0-25.144531-16.210938-46.710937-39.296875-55.898437-5.050781-2.007813-8.300781-6.707031-8.300781-11.878906s3.25-9.871094 8.300781-11.878907c23.085937-9.1875 39.296875-30.753906 39.296875-55.898437zm0 0" fill="#e0ebfc"/><path d="m415.90625 354.441406c-9.667969-3.949218-15.898438-12.921875-15.898438-22.925781 0-.015625 0-.027344 0-.042969.003907-2.113281-1.734374-3.855468-3.976562-3.855468h-8.050781c-2.238281 0-3.976563 1.742187-3.972657 3.855468v.042969c0 10.007813-6.234374 18.980469-15.90625 22.929687-19.078124 7.78125-31.695312 25.226563-31.695312 44.847657v.183593c0 28.996094 24.890625 52.503907 55.601562 52.503907 30.707032 0 55.597657-23.507813 55.597657-52.503907v-.183593c.003906-19.628907-12.621094-37.0625-31.699219-44.851563zm0 0" fill="#f9a7a7"/><path d="m465.121094 202.960938h-146.226563c-6.003906 0-10.886719-4.882813-10.886719-10.886719v-3.675781c0-6 4.882813-10.882813 10.886719-10.882813h146.226563c6.003906 0 10.886718 4.882813 10.886718 10.882813v3.675781c0 6.003906-4.882812 10.886719-10.886718 10.886719zm-146.226563-17.449219c-1.59375 0-2.886719 1.292969-2.886719 2.886719v3.675781c0 1.589843 1.292969 2.886719 2.886719 2.886719h146.226563c1.589844 0 2.886718-1.296876 2.886718-2.886719v-3.675781c0-1.589844-1.296874-2.886719-2.886718-2.886719zm0 0" fill="#3762cc"/><path d="m465.121094 485.511719h-146.226563c-6.003906 0-10.886719-4.882813-10.886719-10.882813v-3.675781c0-6.003906 4.882813-10.886719 10.886719-10.886719h146.226563c6.003906 0 10.886718 4.882813 10.886718 10.886719v3.675781c0 6-4.882812 10.882813-10.886718 10.882813zm-146.226563-17.445313c-1.59375 0-2.886719 1.292969-2.886719 2.886719v3.675781c0 1.589844 1.292969 2.882813 2.886719 2.882813h146.226563c1.589844 0 2.886718-1.292969 2.886718-2.882813v-3.675781c0-1.589844-1.296874-2.886719-2.886718-2.886719zm0 0" fill="#3762cc"/><path d="m455.179688 468.066406h-126.34375c-5.089844 0-9.226563-4.007812-9.226563-8.9375v-59.835937c0-26.105469 16.414063-49.503907 41.820313-59.617188 3.511718-1.394531 5.777343-4.601562 5.777343-8.164062s-2.265625-6.765625-5.777343-8.164063c-25.40625-10.109375-41.820313-33.507812-41.820313-59.617187v-59.835938c0-4.925781 4.136719-8.933593 9.226563-8.933593h126.34375c5.089843 0 9.226562 4.007812 9.226562 8.933593v59.839844c0 26.105469-16.417969 49.503906-41.820312 59.617187-3.511719 1.394532-5.78125 4.597657-5.78125 8.164063 0 3.5625 2.269531 6.765625 5.78125 8.164063 25.402343 10.109374 41.820312 33.507812 41.820312 59.613281v59.839843c0 4.921876-4.136719 8.933594-9.226562 8.933594zm-126.34375-265.105468c-.664063 0-1.226563.429687-1.226563.9375v59.835937c0 22.808594 14.4375 43.292969 36.78125 52.183594 6.574219 2.617187 10.820313 8.738281 10.820313 15.597656s-4.246094 12.980469-10.820313 15.597656c-22.34375 8.890625-36.78125 29.371094-36.78125 52.179688v59.839843c0 .503907.5625.933594 1.226563.933594h126.347656c.664062 0 1.222656-.425781 1.222656-.933594v-59.839843c0-22.808594-14.4375-43.289063-36.777344-52.179688-6.574218-2.617187-10.820312-8.738281-10.820312-15.597656s4.246094-12.980469 10.820312-15.597656c22.339844-8.890625 36.777344-29.375 36.777344-52.183594v-59.839844c0-.503906-.558594-.933593-1.222656-.933593zm0 0" fill="#3762cc"/><path d="m392.019531 429.566406c-.394531 0-.789062-.011718-1.183593-.03125-11.523438-.625-20.769532-10.769531-20.605469-22.621094.058593-4.332031 1.332031-8.523437 3.679687-12.113281l.007813-.003906 13.242187-20.574219c1.070313-1.664062 2.882813-2.65625 4.847656-2.65625 1.960938 0 3.777344.992188 4.84375 2.65625l13.226563 20.546875c.007813.011719.015625.023438.023437.035157 2.410157 3.6875 3.683594 7.984374 3.683594 12.429687 0 6.210937-2.550781 12.191406-7 16.40625-4.0625 3.84375-9.265625 5.925781-14.765625 5.925781zm-11.421875-30.371094c-1.507812 2.316407-2.328125 5.019532-2.367187 7.828126-.105469 7.613281 5.742187 14.125 13.039062 14.519531 3.703125.210937 7.273438-1.117188 10.011719-3.714844 2.863281-2.710937 4.503906-6.570313 4.503906-10.597656 0-2.886719-.820312-5.671875-2.378906-8.050781-.015625-.023438-.03125-.046876-.046875-.074219l-11.351563-17.632813-11.375 17.671875c-.011718.019531-.023437.035157-.035156.050781zm0 0" fill="#3762cc"/></svg>