<svg width="10" height="13" viewBox="0 0 10 13" fill="none" xmlns="http://www.w3.org/2000/svg">
<path d="M7.99022 8.36532C7.93133 8.36526 7.87437 8.34502 7.82943 8.30819C7.7845 8.27137 7.75451 8.22034 7.74478 8.16416C7.73504 8.10797 7.74619 8.05027 7.77626 8.00129C7.80632 7.9523 7.85335 7.9152 7.909 7.89657C8.08742 7.85162 8.2515 7.76448 8.38648 7.64299C8.52146 7.5215 8.62312 7.36947 8.68232 7.20056C8.8308 6.72024 8.71072 5.77672 7.29762 4.00752C7.27761 3.98247 7.26289 3.95386 7.25432 3.92331C7.24574 3.89276 7.24347 3.86087 7.24763 3.82947C7.2518 3.79807 7.26231 3.76777 7.27859 3.74031C7.29486 3.71284 7.31656 3.68875 7.34246 3.6694C7.36472 3.65004 7.39107 3.63561 7.41968 3.62711C7.44829 3.61862 7.47847 3.61626 7.50812 3.62021C7.53777 3.62415 7.56617 3.63431 7.59135 3.64996C7.61652 3.66562 7.63786 3.6864 7.65388 3.71085C8.89234 5.26097 9.42374 6.48285 9.15966 7.33865C9.07835 7.58111 8.93652 7.80044 8.74671 7.97725C8.5569 8.15405 8.32497 8.28287 8.07144 8.3523C8.04529 8.36095 8.01785 8.36535 7.99022 8.36532V8.36532Z" fill="black"/>
<path d="M3.01897 3.65204C3.01913 3.67161 3.01636 3.69109 3.01075 3.70988C3.0072 3.72767 3.00063 3.74477 2.99132 3.76049C2.98559 3.77303 2.90263 3.69856 2.8944 3.71374C2.89166 3.71615 2.99555 3.69446 2.99281 3.69687C2.67694 4.08464 2.38471 4.48989 2.1176 4.91056C1.35475 6.05315 1.29396 6.73663 1.41305 7.12777C1.47437 7.30061 1.57806 7.45651 1.71525 7.58213C1.85244 7.70775 2.01904 7.79935 2.20081 7.84909C2.23411 7.85964 2.26482 7.87669 2.29104 7.89918C2.31725 7.92168 2.33842 7.94913 2.35322 7.97986C2.36803 8.01058 2.37616 8.04392 2.37711 8.0778C2.37807 8.11169 2.37182 8.1454 2.35876 8.17686C2.33638 8.22472 2.30008 8.26524 2.25429 8.29348C2.2085 8.32173 2.15521 8.33647 2.10091 8.33592C2.06587 8.33621 2.03107 8.33025 1.99826 8.31832C1.73756 8.24265 1.4997 8.10698 1.30506 7.92293C1.11042 7.73888 0.964787 7.51193 0.880644 7.26153C0.608837 6.36862 1.16067 5.09974 2.52245 3.49828C2.54763 3.46887 2.57891 3.4449 2.61427 3.42792C2.64963 3.41094 2.68829 3.40133 2.72773 3.39971H2.73022C2.76402 3.39881 2.79774 3.40312 2.83013 3.41249C2.84561 3.41678 2.86056 3.42268 2.87472 3.43008C2.88899 3.43515 2.9021 3.44284 2.91334 3.45274C2.93009 3.46499 2.94501 3.47943 2.95768 3.49563C2.96944 3.50729 2.9789 3.52093 2.98559 3.53588C2.99642 3.55025 3.00397 3.56668 3.00776 3.58408C3.01553 3.60594 3.01932 3.62893 3.01897 3.65204V3.65204Z" fill="black"/>
<path d="M8.09609 5.615C8.1177 6.67384 7.70368 7.69764 6.94509 8.46123C6.70127 8.71467 6.40647 8.91723 6.07879 9.05648C5.75112 9.19572 5.39749 9.26872 5.0396 9.27097C4.68171 9.27323 4.32712 9.20471 3.99759 9.0696C3.66807 8.9345 3.37057 8.73568 3.12335 8.48533C2.74022 8.10634 2.43892 7.65735 2.23703 7.16455C2.03514 6.67175 1.93669 6.14499 1.94743 5.615C1.94743 5.55234 1.94992 5.48968 1.95242 5.42702C1.9569 5.30527 1.96771 5.18381 1.9848 5.06311C2.00993 4.85033 2.05327 4.63994 2.11435 4.43409C2.17991 4.19685 2.26833 3.96609 2.37844 3.74483C2.39374 3.71468 2.41538 3.68796 2.44198 3.66638C2.46858 3.64479 2.49955 3.62883 2.5329 3.6195H2.53539C2.5401 3.61754 2.54523 3.61671 2.55034 3.61709C2.57598 3.61723 2.60136 3.62214 2.62508 3.63155C2.63567 3.63255 2.64589 3.63585 2.65498 3.64119C2.65747 3.6436 2.66245 3.64601 2.66494 3.64842C2.67795 3.65333 2.68981 3.66071 2.69982 3.67011C2.71499 3.68194 2.7284 3.69572 2.73968 3.71108C2.75028 3.72242 2.75871 3.73547 2.7646 3.74964C2.77435 3.76346 2.78113 3.77903 2.78453 3.79544C2.79149 3.81646 2.79485 3.83844 2.79449 3.86051C2.79463 3.87923 2.79211 3.89788 2.78702 3.91594C2.78385 3.93279 2.77796 3.94905 2.76958 3.96414C2.7646 3.97619 2.75712 3.98824 2.74965 4.0027L2.74467 4.00752C2.66494 4.15212 2.16842 4.26443 2.16941 4.53676C2.16991 4.65774 2.29049 4.78162 2.14699 4.83415C2.27156 4.78836 2.41107 4.73534 2.56305 4.68232C2.51558 4.86269 2.48309 5.04643 2.46588 5.23181C2.45343 5.35954 2.44595 5.48727 2.44595 5.615C2.44595 6.87544 3.04637 7.96718 3.91336 8.48051C4.24942 8.68451 4.63867 8.79151 5.0354 8.78895C5.43213 8.78639 5.81988 8.67437 6.15309 8.46605C7.00762 7.95031 7.59807 6.8658 7.59807 5.615C7.60111 5.04087 7.47085 4.47342 7.21689 3.9545C7.18003 3.8736 7.14898 3.79033 7.12397 3.7053C7.12532 3.6585 7.14049 3.61305 7.16768 3.57431C7.19487 3.53558 7.23296 3.50518 7.27743 3.48671C7.402 3.42887 7.48646 3.3156 7.55547 3.47273C7.65388 3.69687 7.8644 4.19791 7.93166 4.43891C8.04187 4.82181 8.0972 5.21754 8.09609 5.615V5.615Z" fill="black"/>
<path d="M6.51733 5.28794C6.51733 5.38327 6.48811 5.47646 6.43336 5.55573C6.37861 5.63499 6.30079 5.69677 6.20974 5.73326C6.11869 5.76974 6.01851 5.77928 5.92185 5.76068C5.8252 5.74209 5.73641 5.69618 5.66673 5.62877C5.59705 5.56136 5.54959 5.47548 5.53036 5.38198C5.51114 5.28848 5.52101 5.19156 5.55872 5.10349C5.59643 5.01541 5.6603 4.94013 5.74224 4.88717C5.82418 4.83421 5.92051 4.80594 6.01906 4.80594C6.15121 4.80594 6.27795 4.85672 6.37139 4.94711C6.46483 5.03751 6.51733 5.16011 6.51733 5.28794Z" fill="black"/>
<path d="M4.52424 5.28794C4.52424 5.38327 4.49502 5.47646 4.44027 5.55573C4.38552 5.63499 4.3077 5.69677 4.21665 5.73326C4.12561 5.76974 4.02542 5.77928 3.92877 5.76068C3.83211 5.74209 3.74333 5.69618 3.67364 5.62877C3.60396 5.56136 3.5565 5.47548 3.53728 5.38198C3.51805 5.28848 3.52792 5.19156 3.56563 5.10349C3.60334 5.01541 3.66721 4.94013 3.74915 4.88717C3.83109 4.83421 3.92743 4.80594 4.02597 4.80594C4.15812 4.80594 4.28486 4.85672 4.3783 4.94711C4.47175 5.03751 4.52424 5.16011 4.52424 5.28794Z" fill="black"/>
<path d="M5.0225 7.69847C4.72344 7.69566 4.42926 7.62483 4.16373 7.49169C4.13447 7.47753 4.10837 7.45793 4.08694 7.43401C4.0655 7.41009 4.04915 7.38232 4.03881 7.35229C4.02847 7.32226 4.02434 7.29055 4.02667 7.25897C4.029 7.2274 4.03773 7.19657 4.05237 7.16826C4.06701 7.13995 4.08727 7.11471 4.112 7.09398C4.13672 7.07324 4.16543 7.05742 4.19648 7.04742C4.22752 7.03741 4.2603 7.03342 4.29294 7.03567C4.32558 7.03793 4.35745 7.04637 4.38671 7.06054C4.5821 7.16248 4.80063 7.21585 5.02263 7.21585C5.24463 7.21585 5.46315 7.16248 5.65855 7.06054C5.68783 7.04637 5.71971 7.03793 5.75236 7.03568C5.78502 7.03344 5.81781 7.03744 5.84887 7.04745C5.87993 7.05747 5.90864 7.0733 5.93337 7.09405C5.9581 7.1148 5.97837 7.14006 5.99301 7.16838C6.00765 7.19671 6.01638 7.22755 6.0187 7.25914C6.02102 7.29073 6.01689 7.32245 6.00654 7.35249C5.99618 7.38254 5.97981 7.41032 5.95836 7.43424C5.93692 7.45816 5.9108 7.47777 5.88152 7.49193C5.6159 7.62502 5.32163 7.69577 5.0225 7.69847V7.69847Z" fill="black"/>
<path d="M2.7504 3.80335C2.69062 3.80325 2.63287 3.78236 2.58769 3.74448C2.54251 3.70661 2.51291 3.65429 2.5043 3.59706C2.49569 3.53984 2.50864 3.48152 2.54078 3.43276C2.57293 3.384 2.62212 3.34805 2.67939 3.33147C4.21793 2.86782 5.86591 2.86816 7.40425 3.33243C7.43611 3.34136 7.46582 3.35635 7.49162 3.37653C7.51742 3.39671 7.53879 3.42167 7.55449 3.44994C7.57018 3.47822 7.57987 3.50925 7.583 3.5412C7.58613 3.57315 7.58263 3.60538 7.57271 3.63601C7.56279 3.66664 7.54664 3.69503 7.52522 3.71954C7.5038 3.74405 7.47753 3.76417 7.44796 3.77873C7.41839 3.79328 7.38611 3.80198 7.35302 3.8043C7.31993 3.80663 7.2867 3.80253 7.25526 3.79226C5.8116 3.35747 4.26536 3.35781 2.8219 3.79323C2.79871 3.79997 2.77462 3.80338 2.7504 3.80335V3.80335Z" fill="black"/>
<path d="M4.84089 0.690128C4.84588 0.687718 4.84837 0.682898 4.85086 0.680488C4.88072 0.644211 4.92172 0.61805 4.96795 0.605777C4.97719 0.601128 4.98743 0.598651 4.99785 0.598547C5.01157 0.594573 5.0259 0.592942 5.0402 0.593727C5.05451 0.592801 5.06886 0.594435 5.08255 0.598547C5.09297 0.598651 5.10321 0.601128 5.11245 0.605777C5.14558 0.61419 5.17626 0.629857 5.20214 0.651567C5.21648 0.662585 5.22907 0.675577 5.23951 0.690128C5.65058 1.13839 6.69695 1.23238 7.19522 1.23479C7.24256 1.23479 7.28491 1.23238 7.31979 1.23238C7.35309 1.23061 7.38642 1.23547 7.4177 1.24666C7.44899 1.25785 7.47756 1.27514 7.50166 1.29745C7.52604 1.31978 7.54546 1.34669 7.55874 1.37652C7.57202 1.40635 7.57888 1.43849 7.57889 1.47097V3.51226C7.57889 3.57618 7.55264 3.63748 7.50592 3.68267C7.4592 3.72787 7.39583 3.75326 7.32975 3.75326C7.26368 3.75326 7.20031 3.72787 7.15359 3.68267C7.10687 3.63748 7.08062 3.57618 7.08062 3.51226V1.71198C7.02581 1.71198 6.96103 1.70957 6.89128 1.70475C6.38304 1.67583 5.55591 1.56737 5.0402 1.1649C4.97061 1.11406 4.9071 1.05586 4.85086 0.99138C4.81379 0.949861 4.79257 0.897292 4.79076 0.84246C4.78895 0.787628 4.80664 0.733854 4.84089 0.690128V0.690128Z" fill="black"/>
<path d="M2.50151 3.51226V1.47097C2.50173 1.40585 2.5286 1.34346 2.57625 1.29745C2.62643 1.25283 2.69247 1.22865 2.76061 1.22997C2.79549 1.23238 2.83784 1.23238 2.88269 1.23238C3.38345 1.23238 4.43231 1.1408 4.84089 0.690128C4.84587 0.687718 4.84836 0.682898 4.85086 0.680488C4.88072 0.644211 4.92172 0.61805 4.96795 0.605777C4.97719 0.601128 4.98743 0.598651 4.99785 0.598547C5.01157 0.594573 5.0259 0.592942 5.0402 0.593727C5.0545 0.592801 5.06886 0.594435 5.08255 0.598547C5.09297 0.598651 5.10321 0.601128 5.11245 0.605777C5.14558 0.61419 5.17626 0.629857 5.20214 0.651567C5.21647 0.662585 5.22907 0.675577 5.23951 0.690128C5.27376 0.733854 5.29145 0.787628 5.28964 0.84246C5.28782 0.897292 5.26661 0.949861 5.22954 0.99138C5.1733 1.05586 5.10979 1.11406 5.0402 1.1649C4.52449 1.56737 3.69736 1.67583 3.18912 1.70475C3.11937 1.70957 3.05459 1.71198 2.99978 1.71198V3.51226C2.99978 3.57618 2.97353 3.63748 2.92681 3.68267C2.88009 3.72787 2.81672 3.75326 2.75065 3.75326C2.68457 3.75326 2.6212 3.72787 2.57448 3.68267C2.52776 3.63748 2.50151 3.57618 2.50151 3.51226V3.51226Z" fill="black"/>
<path d="M5.15854 1.69077V2.0383H5.51779V2.28292H5.15854V2.63044H4.90567V2.28292H4.54641V2.03854H4.90567V1.69101H5.15854V1.69077ZM5.15854 1.45001H4.90567C4.83959 1.45001 4.77622 1.4754 4.7295 1.5206C4.68278 1.5658 4.65653 1.6271 4.65653 1.69101V1.79754H4.54641C4.48034 1.79754 4.41697 1.82293 4.37025 1.86812C4.32353 1.91332 4.29728 1.97462 4.29728 2.03854V2.28316C4.29728 2.34707 4.32353 2.40837 4.37025 2.45357C4.41697 2.49877 4.48034 2.52416 4.54641 2.52416H4.65653V2.63068C4.65653 2.6946 4.68278 2.7559 4.7295 2.80109C4.77622 2.84629 4.83959 2.87168 4.90567 2.87168H5.15854C5.22462 2.87168 5.28798 2.84629 5.33471 2.80109C5.38143 2.7559 5.40768 2.6946 5.40768 2.63068V2.52416H5.51779C5.58387 2.52416 5.64724 2.49877 5.69396 2.45357C5.74068 2.40837 5.76693 2.34707 5.76693 2.28316V2.03854C5.76693 1.97462 5.74068 1.91332 5.69396 1.86812C5.64724 1.82293 5.58387 1.79754 5.51779 1.79754H5.40768V1.69101C5.40768 1.6271 5.38143 1.5658 5.33471 1.5206C5.28798 1.4754 5.22462 1.45001 5.15854 1.45001Z" fill="black"/>
<path d="M2.28053 5.39806C2.24309 5.3981 2.20613 5.38997 2.17239 5.37428C2.13865 5.3586 2.10899 5.33576 2.08563 5.30746C2.06226 5.27917 2.04579 5.24614 2.03744 5.21084C2.02909 5.17554 2.02906 5.13887 2.03738 5.10356C2.03787 5.09151 2.03787 5.07632 2.03812 5.05801C2.03067 4.48771 2.20424 3.92892 2.5354 3.45703C2.56591 3.41406 2.60995 3.38177 2.66096 3.36497C2.72574 3.34352 4.26838 2.84368 5.55317 3.00106C5.60057 3.00684 5.64526 3.02569 5.68189 3.05536C5.71853 3.08503 5.74557 3.12426 5.7598 3.16838C5.77404 3.2125 5.77485 3.25964 5.76216 3.3042C5.74946 3.34875 5.72379 3.38884 5.6882 3.41968C5.61097 3.48643 3.78556 5.05512 2.33858 5.39107C2.3195 5.3956 2.29993 5.39786 2.28028 5.39782L2.28053 5.39806ZM2.90038 3.79685C2.69815 4.1075 2.57676 4.46093 2.54661 4.82689C3.38365 4.48035 4.1644 4.01837 4.86456 3.45535C4.19786 3.49102 3.5382 3.60571 2.90038 3.79685V3.79685Z" fill="black"/>
<path d="M2.20579 12.7474C2.00869 12.7474 1.81602 12.6909 1.65214 12.585C1.48826 12.4791 1.36053 12.3285 1.2851 12.1523C1.20968 11.9762 1.18994 11.7824 1.22839 11.5954C1.26684 11.4084 1.36176 11.2366 1.50112 11.1018C1.64049 10.967 1.81806 10.8751 2.01137 10.838C2.20468 10.8008 2.40505 10.8198 2.58715 10.8928C2.76924 10.9658 2.92488 11.0893 3.03438 11.2479C3.14388 11.4064 3.20233 11.5928 3.20233 11.7834C3.20206 12.039 3.09699 12.2841 2.91016 12.4648C2.72332 12.6455 2.47 12.7472 2.20579 12.7474V12.7474ZM2.20579 11.3014C2.10724 11.3014 2.0109 11.3297 1.92896 11.3827C1.84702 11.4356 1.78316 11.5109 1.74544 11.599C1.70773 11.6871 1.69786 11.784 1.71709 11.8775C1.73631 11.971 1.78377 12.0569 1.85346 12.1243C1.92314 12.1917 2.01192 12.2376 2.10858 12.2562C2.20523 12.2748 2.30542 12.2652 2.39647 12.2287C2.48751 12.1923 2.56533 12.1305 2.62008 12.0512C2.67483 11.972 2.70406 11.8788 2.70406 11.7834C2.70392 11.6556 2.65139 11.5331 2.55797 11.4427C2.46455 11.3524 2.33789 11.3016 2.20579 11.3014V11.3014Z" fill="black"/>
<path d="M2.20505 11.301C2.1507 11.3009 2.09786 11.2836 2.05462 11.2518C2.01138 11.2199 1.98012 11.1752 1.96563 11.1245C1.8895 10.7775 1.88572 10.4193 1.9545 10.0709C2.02329 9.72242 2.16327 9.39076 2.36624 9.09531C2.40199 9.04152 2.45836 9.00367 2.52295 8.99009C2.58755 8.97651 2.65507 8.98831 2.71067 9.02288C2.76628 9.05746 2.8054 9.11199 2.81944 9.17448C2.83348 9.23696 2.82128 9.30228 2.78554 9.35607C2.62002 9.59449 2.50484 9.86219 2.44661 10.1438C2.38837 10.4254 2.38824 10.7154 2.44622 10.9971C2.46324 11.0587 2.45437 11.1243 2.42156 11.1796C2.38875 11.2349 2.33465 11.2754 2.27107 11.2923C2.24955 11.2979 2.22736 11.3009 2.20505 11.301V11.301Z" fill="black"/>
<path d="M9.71871 12.7756C9.68275 12.7759 9.64718 12.7685 9.61445 12.7541C9.58172 12.7397 9.55262 12.7186 9.52917 12.6922C9.50571 12.6659 9.48845 12.6349 9.47859 12.6014C9.46873 12.568 9.46651 12.5329 9.47207 12.4985C9.47481 12.4792 9.76106 10.5401 8.3973 9.87736C8.33823 9.84863 8.29337 9.79837 8.2726 9.73765C8.25184 9.67693 8.25685 9.61072 8.28656 9.55357C8.31626 9.49643 8.36821 9.45304 8.43098 9.43295C8.49375 9.41286 8.5622 9.41772 8.62127 9.44645C10.3102 10.2673 9.97906 12.4778 9.96436 12.5715C9.95527 12.6283 9.92553 12.68 9.8805 12.7175C9.83546 12.7549 9.77808 12.7755 9.71871 12.7756V12.7756Z" fill="black"/>
<path d="M5.00981 10.5085H4.9839L4.97394 10.5083C4.38274 10.5006 3.80948 10.3085 3.0673 9.87036C3.01161 9.83674 2.97188 9.78321 2.95676 9.72141C2.94164 9.65961 2.95234 9.59454 2.98655 9.54033C3.02075 9.48612 3.07569 9.44717 3.13943 9.43193C3.20316 9.4167 3.27053 9.42641 3.3269 9.45897C3.99583 9.85397 4.49734 10.0241 4.99985 10.0263C5.56027 10.0001 6.10242 9.82513 6.56691 9.52067C6.62377 9.48945 6.69103 9.48111 6.75419 9.49743C6.81735 9.51376 6.87135 9.55345 6.90453 9.60794C6.93771 9.66243 6.94742 9.72736 6.93157 9.78871C6.91571 9.85007 6.87556 9.90293 6.81978 9.93591C6.28586 10.2783 5.66675 10.4759 5.027 10.508C5.02152 10.5085 5.01604 10.508 5.00981 10.5085V10.5085Z" fill="black"/>
<path d="M0.281717 12.7756C0.222287 12.7756 0.164826 12.755 0.119725 12.7176C0.0746252 12.6802 0.0448626 12.6283 0.0358201 12.5715C0.0201246 12.4722 -0.329661 10.1292 1.53561 9.37704C1.5966 9.35243 1.6652 9.35226 1.72631 9.37658C1.78742 9.40089 1.83605 9.4477 1.86148 9.50669C1.88692 9.56569 1.88709 9.63205 1.86196 9.69116C1.83682 9.75028 1.78844 9.79732 1.72745 9.82192C0.223668 10.4285 0.525371 12.4778 0.52861 12.4987C0.53413 12.5331 0.531874 12.5682 0.521996 12.6016C0.512119 12.635 0.494856 12.666 0.471402 12.6923C0.447947 12.7186 0.418861 12.7397 0.386153 12.7541C0.353446 12.7685 0.317897 12.7758 0.281966 12.7756H0.281717Z" fill="black"/>
<path d="M7.30111 12.9998C7.29313 12.9998 7.28491 12.9995 7.27669 12.9988C7.21105 12.9926 7.15064 12.9614 7.1087 12.9122C7.06676 12.8629 7.04672 12.7996 7.05297 12.7361L7.07091 12.5558C7.00828 12.5253 6.95196 12.484 6.90473 12.4339C6.56516 12.076 6.65186 11.2549 6.68051 11.0464C6.67628 10.6922 6.8417 10.0824 7.46479 9.92216C7.41165 9.67652 7.29441 9.44811 7.12422 9.25869C7.1015 9.2359 7.08364 9.20901 7.07166 9.17954C7.05968 9.15008 7.05382 9.11862 7.05441 9.08696C7.055 9.05531 7.06203 9.02408 7.0751 8.99505C7.08817 8.96602 7.10702 8.93977 7.13057 8.91779C7.15413 8.89581 7.18193 8.87853 7.21239 8.86695C7.24285 8.85536 7.27537 8.84969 7.30809 8.85026C7.34081 8.85083 7.3731 8.85763 7.40311 8.87027C7.43311 8.88291 7.46025 8.90115 7.48298 8.92393C7.77616 9.2571 7.95744 9.66878 8.00267 10.1041C8.00553 10.1367 8.00151 10.1695 7.99085 10.2005C7.98019 10.2315 7.96313 10.2601 7.94068 10.2846C7.91824 10.309 7.89089 10.3288 7.8603 10.3427C7.82972 10.3565 7.79653 10.3643 7.76275 10.3654C7.19348 10.3837 7.17654 10.9423 7.17903 11.0542C7.1793 11.0673 7.17847 11.0804 7.17654 11.0934C7.13834 11.3576 7.13994 11.6257 7.18127 11.8895C7.2069 11.8593 7.23988 11.8358 7.27724 11.8211C7.31461 11.8064 7.35517 11.8009 7.39528 11.8051C7.42784 11.8081 7.45947 11.8173 7.48837 11.8321C7.51726 11.8469 7.54285 11.8671 7.56367 11.8915C7.5845 11.9159 7.60015 11.944 7.60973 11.9743C7.61931 12.0045 7.62263 12.0363 7.6195 12.0678L7.59085 12.3589C7.59138 12.3705 7.59105 12.3821 7.58985 12.3936L7.549 12.7831C7.54282 12.8425 7.51404 12.8977 7.46823 12.9377C7.42243 12.9778 7.36287 13 7.30111 13V12.9998Z" fill="black"/>
<path d="M8.30836 12.9998C8.24672 12.9997 8.18728 12.9776 8.14154 12.9376C8.0958 12.8976 8.06701 12.8427 8.06072 12.7833L8.01961 12.3939C8.01843 12.382 8.0181 12.3701 8.01862 12.3582L7.98997 12.0678C7.98372 12.0042 8.00383 11.9408 8.04587 11.8916C8.08792 11.8423 8.14846 11.8112 8.21419 11.8051C8.25436 11.8008 8.29499 11.8063 8.33241 11.8211C8.36983 11.8359 8.40284 11.8595 8.42844 11.8897C8.46987 11.6259 8.47155 11.3577 8.43343 11.0934C8.4315 11.08 8.43067 11.0665 8.43094 11.0529C8.43343 10.9423 8.41648 10.3837 7.84721 10.3654C7.81386 10.3653 7.78087 10.3587 7.75019 10.3461C7.71952 10.3334 7.69178 10.3149 7.66862 10.2917C7.64547 10.2685 7.62737 10.241 7.6154 10.2109C7.60342 10.1808 7.59782 10.1487 7.59892 10.1164C7.60002 10.0842 7.6078 10.0525 7.62181 10.0232C7.63581 9.9939 7.65574 9.96764 7.68043 9.94595C7.70512 9.92426 7.73406 9.90759 7.76553 9.89692C7.797 9.88625 7.83037 9.88181 7.86365 9.88384C8.71993 9.91108 8.93419 10.644 8.92921 11.0464C8.95786 11.2549 9.04431 12.076 8.70473 12.4336C8.65773 12.484 8.60146 12.5254 8.53881 12.5558L8.5565 12.7359C8.56275 12.7993 8.54278 12.8626 8.50095 12.9118C8.45911 12.961 8.39883 12.9922 8.33327 12.9986C8.32499 12.9993 8.31668 12.9997 8.30836 12.9998V12.9998Z" fill="black"/>
<path d="M4.94553 12.7759C4.89953 12.7758 4.85443 12.7635 4.81521 12.7402C4.776 12.717 4.74419 12.6837 4.7233 12.644L3.31369 9.96097C3.2987 9.93274 3.28963 9.90192 3.28698 9.87029C3.28434 9.83866 3.28818 9.80683 3.29828 9.77663C3.30839 9.74644 3.32456 9.71848 3.34587 9.69434C3.36717 9.67021 3.3932 9.65039 3.42245 9.63601C3.4517 9.62163 3.48359 9.61299 3.5163 9.61057C3.54902 9.60814 3.5819 9.612 3.61307 9.6219C3.64424 9.63181 3.67308 9.64757 3.69793 9.66829C3.72278 9.68901 3.74316 9.71427 3.7579 9.74262L5.16751 12.4257C5.18679 12.4624 5.19603 12.5033 5.19434 12.5444C5.19265 12.5856 5.18009 12.6256 5.15785 12.6608C5.13561 12.6959 5.10444 12.7249 5.06732 12.745C5.03019 12.7652 4.98835 12.7758 4.94578 12.7759H4.94553Z" fill="black"/>
<path d="M4.94503 12.7759C4.90227 12.7758 4.86024 12.7651 4.82299 12.7448C4.78574 12.7245 4.75453 12.6952 4.73235 12.6598C4.71018 12.6245 4.69779 12.5842 4.69638 12.5428C4.69497 12.5015 4.70458 12.4605 4.7243 12.4238L6.13366 9.79636C6.16412 9.73964 6.21662 9.69694 6.27963 9.67766C6.34263 9.65839 6.41097 9.66411 6.46961 9.69358C6.52826 9.72304 6.57239 9.77384 6.59232 9.83478C6.61225 9.89573 6.60633 9.96184 6.57587 10.0186L5.16651 12.646C5.14545 12.6852 5.11365 12.718 5.07459 12.741C5.03553 12.7639 4.99071 12.7759 4.94503 12.7759V12.7759Z" fill="black"/>
</svg>
