<svg height="491pt" viewBox="0 -27 491 491" width="491pt" xmlns="http://www.w3.org/2000/svg"><path d="m304.214844 287.09375c-.578125.433594-1.136719.886719-1.730469 1.304688-.804687.566406-1.628906 1.117187-2.46875 1.652343-3.644531 2.324219-7.625 4.335938-11.855469 6.03125-.933594.375-1.75.910157-2.414062 1.5625-.664063.65625-1.179688 1.421875-1.503906 2.261719l-3.445313 8.851562c-.144531.371094-.351563.710938-.582031 1.035157-.058594.078125-.117188.160156-.179688.234375-.5.617187-1.144531 1.125-1.890625 1.5-.09375.042968-.1875.089844-.28125.128906-.386719.167969-.789062.316406-1.210937.410156-.316406.070313-.644532.121094-.976563.144532-.332031.023437-.667969.027343-1.011719 0-6.253906-.453126-11.054687-4.933594-11.054687-10.3125v-22.238282h-36.226563v22.238282c0 5.378906-4.804687 9.859374-11.058593 10.3125-.339844.023437-.679688.023437-1.011719 0-.332031-.023438-.65625-.070313-.972656-.144532-.425782-.09375-.824219-.242187-1.210938-.410156-.097656-.039062-.191406-.085938-.28125-.128906-.746094-.375-1.390625-.882813-1.890625-1.5-.0625-.078125-.121093-.15625-.179687-.234375-.230469-.324219-.4375-.664063-.582032-1.035157l-3.449218-8.851562c-.324219-.839844-.839844-1.605469-1.503906-2.261719-.664063-.652343-1.476563-1.1875-2.414063-1.5625-4.226563-1.695312-8.207031-3.710937-11.851563-6.03125-.839843-.535156-1.664062-1.089843-2.46875-1.652343-.597656-.417969-1.152343-.871094-1.730468-1.304688 4.023437 17.96875 10.511718 64.714844-21.085938 96.058594h159.601563c-31.59375-31.34375-25.105469-78.089844-21.078125-96.058594zm0 0" fill="#f9cfcf"/><path d="m170.574219 169.992188c-.007813-.027344-.011719-.050782-.015625-.078126l-.015625-.054687zm0 0" fill="#f9a7a7"/><path d="m316.15625 53.824219-.515625-.152344-.507813-.171875c-11.613281-3.890625-23.105468-9.835938-33.230468-17.183594l-2.144532-1.554687c-3.050781-1.765625-13.328124-6.601563-34.253906-6.601563-20.925781 0-31.203125 4.835938-34.253906 6.601563l-2.144531 1.554687c-10.125 7.347656-21.617188 13.292969-33.230469 17.183594l-.507812.171875-.515626.152344c-6.945312 2.0625-13.597656 3.535156-18.828124 4.53125 8.21875 4.933593 13.59375 13.046875 13.59375 22.207031v82.207031c0 .558594.019531 1.113281.050781 1.621094l.082031.824219c.03125.347656.054688.695312.097656 1.054687l.148438.902344c.046875.304687.089844.609375.140625.894531l.203125.855469c.070312.320313.140625.648437.230468.988281l.1875.628906c.105469.363282.210938.730469.308594 1.035157l.230469.625c.140625.386719.277344.773437.417969 1.121093l.242187.554688c.164063.382812.332031.761719.53125 1.1875l.234375.457031c.210938.417969.421875.832031.636719 1.210938l.234375.402343c.246094.425782.496094.847657.773438 1.289063l.21875.328125c.28125.433594.570312.859375.875 1.28125l.207031.277344c.355469.484375.71875.960937.988281 1.292968l.210938.253907c.402343.488281.816406.96875 1.125 1.308593l.210937.234376c.425781.464843.863281.925781 1.316406 1.375l.113281.109374c.488282.488282.992188.960938 1.511719 1.425782l.175781.160156c.484376.429688.980469.851562 1.496094 1.269531.570313.464844 1.160156.917969 1.761719 1.363281l3.101563 2.285157c4.269531 3.144531 9.699218 4.988281 15.328124 4.941406 13.445313-.109375 24.386719 9.199219 24.386719 20.699219v84.871094c0 5.375-4.800781 9.859374-11.054687 10.3125-2.726563.195312-5.261719-1.230469-6.128906-3.457032l-3.445313-8.851562c-.652344-1.675782-2.050781-3.078125-3.917969-3.824219-.171875-.066406-.335937-.144531-.507812-.214844 2.582031 21.585938 3.445312 60.195313-17.222656 87.28125h120.777343c-20.667969-27.089843-19.800781-65.699219-17.21875-87.28125-.171875.070313-.335937.148438-.511719.214844-1.863281.746094-3.265624 2.148437-3.917968 3.824219l-3.445313 8.851562c-.867187 2.222656-3.398437 3.652344-6.125 3.457032-6.253906-.453126-11.058593-4.933594-11.058593-10.3125v-84.871094c0-11.539063 11.09375-20.753906 24.589843-20.699219 5.5625.023437 10.90625-1.839844 15.125-4.941406l3.101563-2.285157c.601562-.445312 1.191406-.898437 1.769531-1.367187.511719-.417969 1.011719-.839844 1.5-1.273437l.167969-.152344c.515625-.464844 1.019531-.9375 1.511718-1.425782l.113282-.113281c.453125-.449219.890625-.90625 1.3125-1.371093l.148437-.160157c.410157-.453125.804688-.914062 1.152344-1.335937l.183594-.222656c.363281-.449219.714843-.910157 1.097656-1.425782l.160156-.214844c.304688-.425781.597657-.855468.90625-1.332031l.195313-.289062c.269531-.421875.523437-.851563.761718-1.265625l.238282-.402344c.222656-.402344.4375-.816406.65625-1.257812l.222656-.429688c.183594-.390625.359375-.789062.542969-1.214844l.222656-.507812c.152344-.375.289063-.753906.417969-1.121094l.226562-.609375c.113282-.351563.214844-.714844.335938-1.121094l.191406-.628906c.078125-.308594.148438-.636719.238281-1.050781l.171875-.71875c.054688-.300782.097656-.609375.144532-.914063l.152343-.890625c.039063-.355468.0625-.71875.105469-1.164062l.070312-.707032c.03125-.542968.050782-1.089843.050782-1.640624v-82.207032c0-9.160156 5.375-17.277344 13.59375-22.210937-5.238282-.996094-11.894532-2.464844-18.839844-4.53125zm0 0" fill="#f9a7a7"/><path d="m418.285156 36.164062h-68.71875s-11.707031-1.445312-24.171875-5.152343c-6.648437-2.226563-15.757812-6.207031-25.289062-13.121094-.03125-.03125-.0625-.066406-.09375-.097656 0 0-.800781-.710938-2.476563-1.808594-5.722656-3.734375-21.761718-11.96875-52.035156-11.96875s-46.3125 8.234375-52.035156 11.96875c-1.675782 1.097656-2.476563 1.808594-2.476563 1.808594-.03125.03125-.0625.066406-.09375.097656-9.53125 6.914063-18.640625 10.894531-25.289062 13.121094-12.464844 3.707031-24.171875 5.152343-24.171875 5.152343h-68.714844c-37.953125 0-68.71875 23.765626-68.71875 53.078126 0 24.320312 21.1875 44.800781 50.074219 51.078124-2.507813-3.339843-3.953125-7.066406-3.953125-11.019531 0-4.226562 1.636718-8.199219 4.484375-11.714843-13.722657-5.25-23.132813-16.242188-22.847657-28.902344.390626-17.394532 19.503907-31.082032 42.027344-31.082032h11.820313c15.214843-.054687 16.65625 5.90625 16.65625 5.90625v-.078124c2.011719 6.027343 7.792969 11.179687 16.355469 13.25 2.460937.59375 5.054687.824218 7.636718.824218h11.21875c2.1875 0 3.964844 1.371094 3.964844 3.058594v82.207031c0 1.082031.035156 2.160157.109375 3.226563.019531.3125.066406.625.089844.9375.066406.753906.132812 1.507812.230469 2.253906.046874.351562.117187.699219.175781 1.054688.109375.699218.214843 1.402343.355469 2.09375.070312.34375.160156.683593.234374 1.023437.15625.695313.3125 1.394531.496094 2.082031.085938.316406.191406.625.28125.941406.207032.710938.417969 1.417969.65625 2.117188.09375.28125.207032.554688.304688.835938.261718.726562.53125 1.449218.824218 2.167968.101563.242188.214844.484375.320313.726563.320313.746093.648437 1.488281 1.003906 2.21875.101563.207031.210938.410156.316407.617187.382812.757813.777343 1.519532 1.195312 2.261719.097656.171875.199219.339844.296875.511719.449219.777344.910156 1.546875 1.398437 2.304687.085938.136719.175782.265625.265626.398438.515624.792969 1.050781 1.574219 1.609374 2.34375.074219.097656.148438.199219.222657.296875.585937.796875 1.195312 1.585937 1.824219 2.363281.058593.070313.117187.140625.175781.210937.65625.796876 1.332031 1.585938 2.035156 2.359376.039063.046874.085937.09375.128906.140624.722657.792969 1.472657 1.574219 2.242188 2.339844.027343.027344.054687.054688.082031.082032.789062.78125 1.601562 1.546874 2.441406 2.300781.011719.007812.023438.023437.035156.03125.851563.765625 1.730469 1.511719 2.628907 2.246093.003906 0 .003906 0 .007812.003907.902344.734375 1.835938 1.453125 2.789063 2.15625v42.050781c0 6.351562 1.457031 12.441406 4.132812 18.082031 1.527344 3.222657 3.449219 6.296875 5.722656 9.1875 1.140626 1.445313 2.363282 2.847657 3.671876 4.195313.652343.675781 1.328124 1.335937 2.019531 1.984375 2.082031 1.949219 4.339843 3.777343 6.757812 5.476562.804688.566407 1.628907 1.117188 2.46875 1.652344 3.644531 2.324219 7.625 4.335937 11.855469 6.03125 1.867188.746094 3.265625 2.148437 3.917969 3.824219l3.445312 8.847656c.867188 2.226562 3.402344 3.65625 6.128907 3.457031 6.253906-.453125 11.054687-4.933593 11.054687-10.3125v-84.871093c0-11.5-10.941406-20.808594-24.386719-20.695313-5.628906.046875-11.058594-1.800781-15.328125-4.945313l-3.101562-2.28125c-.601563-.445312-1.191407-.898437-1.761719-1.367187-.515625-.417969-1.011719-.839844-1.496094-1.269531l-.175781-.15625c-.519531-.464844-1.023437-.941406-1.511719-1.425782l-.113281-.109374c-.453125-.453126-.890625-.910157-1.316406-1.378907l-.210938-.230469c-.308593-.339843-.722656-.820312-1.125-1.308593l-.210937-.253907c-.269532-.335937-.632813-.8125-.988282-1.292968l-.207031-.28125c-.304687-.421875-.59375-.847656-.875-1.28125l-.21875-.328125c-.277343-.4375-.527343-.863281-.773437-1.285157l-.234375-.402343c-.214844-.382813-.425781-.796875-.636719-1.210938l-.234375-.460937c-.199219-.421875-.367187-.800782-.53125-1.1875l-.242187-.554688c-.140626-.34375-.277344-.730468-.417969-1.117187l-.230469-.625c-.097656-.308594-.203125-.675781-.308594-1.039063l-.1875-.628906c.007813.027344.011719.054688.019532.078125l-.039063-.132813.015625.054688c-.089844-.339844-.160156-.667969-.230469-.992188l-.199219-.851562c-.054687-.28125-.09375-.589844-.144531-.898438l-.148437-.898437c-.042969-.359375-.066406-.707031-.097656-1.054687l-.082032-.824219c-.027344-.507813-.046875-1.0625-.046875-1.621094v-82.199219c0-9.160156-5.375-17.277344-13.59375-22.210937 5.226563-.996094 11.882813-2.464844 18.824219-4.53125l.515625-.152344.507813-.167969c11.617187-3.894531 23.105468-9.835937 33.234374-17.183594l2.140626-1.554687c3.054687-1.765625 13.332031-6.605469 34.253906-6.605469 20.925781 0 31.207031 4.839844 34.257812 6.605469l2.140625 1.554687c10.128907 7.347657 21.621094 13.289063 33.234375 17.183594l.507813.167969.515625.152344c6.941406 2.066406 13.597656 3.539062 18.824218 4.53125-8.21875 4.933593-13.59375 13.050781-13.59375 22.210937v82.203125c0 .550781-.015624 1.101563-.046874 1.644531l-.074219.703126c-.039063.445312-.0625.8125-.105469 1.164062l-.148438.894531c-.050781.304688-.09375.613281-.148437.914063l-.167969.71875c-.09375.417968-.160156.742187-.242187 1.054687l-.191407.628907c-.117187.402343-.21875.765624-.335937 1.121093l-.222656.605469c-.132813.371094-.269531.75-.417969 1.125l-.226562.503906c-.183594.425782-.355469.824219-.542969 1.214844l-.222657.429688c-.222656.441406-.429687.855468-.65625 1.261718l-.238281.402344c-.238281.417969-.492187.84375-.761719 1.265625l-.191406.289063c-.3125.476562-.605468.90625-.910156 1.332031l-.160156.214843c-.382813.515626-.734375.976563-1.097656 1.425782l-.183594.222656c-.347656.421875-.742188.882812-1.152344 1.335938l-.144531.15625c-.425781.46875-.863281.925781-1.316407 1.375l-.113281.113281c-.488281.484375-.992187.960937-1.511719 1.425781l-.167968.148438c-.488282.433593-.988282.859374-1.5 1.273437-.578125.472656-1.164063.925781-1.769532 1.371094l-3.101562 2.28125c-4.214844 3.105469-9.5625 4.964843-15.121094 4.941406-13.496094-.050781-24.589844 9.160156-24.589844 20.699219v84.871094c0 5.378906 4.800782 9.859374 11.054688 10.3125 2.726562.199218 5.261719-1.230469 6.128906-3.457032l3.445313-8.847656c.652343-1.675781 2.050781-3.078125 3.917969-3.824219 4.230468-1.695312 8.207031-3.710937 11.855468-6.03125.839844-.535156 1.660156-1.085937 2.46875-1.652343 2.417969-1.699219 4.675782-3.527344 6.757813-5.476563.695312-.648437 1.367187-1.3125 2.023437-1.984375 1.304688-1.351562 2.53125-2.75 3.667969-4.195312 2.273437-2.890626 4.195313-5.964844 5.722656-9.1875 2.671875-5.640626 4.132813-11.730469 4.132813-18.082032v-42.050781c.953125-.703125 1.882812-1.421875 2.789062-2.15625.003906-.003906.003906-.003906.007813-.003906.898437-.734375 1.777343-1.480469 2.628906-2.246094.011719-.007813.023437-.023437.035156-.03125.835938-.753906 1.652344-1.519531 2.441407-2.300781.027343-.027344.054687-.054688.082031-.082032.769531-.765624 1.519531-1.546874 2.242187-2.339843.042969-.046875.085938-.09375.128906-.140625.703126-.773438 1.382813-1.558594 2.035157-2.359375.058593-.070313.117187-.140625.175781-.210938.628906-.777343 1.238281-1.566406 1.824219-2.363281.074219-.097656.148437-.199219.222656-.296875.558594-.769531 1.09375-1.550781 1.609375-2.34375.089844-.132813.179688-.261719.265625-.398437.488281-.757813.949219-1.527344 1.394531-2.304688.101563-.167969.203125-.335938.300782-.507812.417968-.746094.8125-1.503907 1.195312-2.265626.105469-.207031.214844-.410156.316406-.617187.355469-.734375.683594-1.472656 1.003906-2.21875.101563-.242187.21875-.480469.320313-.726563.296875-.714843.5625-1.441406.824219-2.167968.097656-.28125.210937-.554688.304687-.835938.238281-.699218.449219-1.40625.652344-2.117187.09375-.316407.199219-.625.285156-.941407.183594-.6875.339844-1.386718.496094-2.082031.074219-.339843.167969-.679687.234375-1.023437.140625-.695313.246094-1.394532.355469-2.09375.058593-.351563.125-.703125.175781-1.054688.097656-.746094.164062-1.5.230469-2.253906.023437-.3125.070312-.625.089843-.9375.074219-1.066406.109376-2.144531.109376-3.226562v-82.207032c0-1.691406 1.773437-3.0625 3.964843-3.0625h11.21875c2.582031 0 5.171875-.230468 7.636719-.824218 8.5625-2.070313 14.34375-7.21875 16.355469-13.25v.078124s1.445312-5.957031 16.65625-5.90625h11.820312c22.519531 0 41.632813 13.691407 42.023438 31.082032.285156 12.636718-9.089844 23.609375-22.773438 28.871094 2.863281 3.523437 4.511719 7.511718 4.511719 11.75 0 3.9375-1.4375 7.65625-3.9375 10.992187 28.828125-6.308594 49.957031-26.765625 49.957031-51.054687.011719-29.3125-30.753906-53.078126-68.703125-53.078126zm0 0" fill="#f9cfcf"/><path d="m440.976562 129.304688c0-14.175782-18.089843-25.667969-40.410156-25.667969-22.320312 0-40.414062 11.492187-40.414062 25.667969 0 14.175781 18.09375 25.664062 40.414062 25.664062 22.320313 0 40.410156-11.488281 40.410156-25.664062zm0 0" fill="#f9a7a7"/><path d="m130.945312 129.304688c0-14.175782-18.09375-25.667969-40.414062-25.667969-22.316406 0-40.410156 11.492187-40.410156 25.667969 0 14.175781 18.09375 25.664062 40.410156 25.664062 22.320312 0 40.414062-11.488281 40.414062-25.664062zm0 0" fill="#f9a7a7"/><path d="m325.300781 387.136719h-159.601562c-1.621094 0-3.082031-.976563-3.699219-2.476563s-.269531-3.21875.882812-4.363281c29.320313-29.082031 24.261719-72.375 20.292969-91.019531l-3.96875-3.292969c-.0625-.046875-.121093-.101563-.179687-.15625-.742188-.695313-1.460938-1.402344-2.160156-2.125-1.402344-1.445313-2.726563-2.960937-3.941407-4.503906-2.472656-3.144531-4.558593-6.492188-6.199219-9.945313-2.996093-6.324218-4.515624-12.984375-4.515624-19.796875v-40.0625c-.445313-.34375-.882813-.691406-1.3125-1.042969-.953126-.773437-1.878907-1.5625-2.78125-2.371093-.003907-.003907-.011719-.011719-.015626-.015625-.007812-.007813-.019531-.015625-.03125-.023438-.878906-.796875-1.742187-1.605468-2.578124-2.433594-.90625-.902343-1.699219-1.730468-2.464844-2.570312-.007813-.007812-.144532-.15625-.148438-.160156-.734375-.8125-1.457031-1.648438-2.152344-2.5l-.171874-.207032c-.683594-.839843-1.328126-1.679687-1.957032-2.527343l-.246094-.335938c-.589843-.808593-1.160156-1.644531-1.710937-2.488281l-.28125-.421875c-.523437-.816406-1.015625-1.636719-1.496094-2.464844l-.324219-.558593c-.449218-.792969-.875-1.609376-1.28125-2.425782l-.335937-.652344c-.386719-.792968-.738281-1.589843-1.082031-2.390624l-.339844-.777344c-.324219-.785156-.613281-1.566406-.894531-2.351563l-.109375-.289062c-.074219-.203125-.148438-.40625-.21875-.609375-.257813-.753906-.484375-1.519532-.710938-2.289063l-.09375-.316406c-.074218-.230469-.144531-.460937-.207031-.695313-.191406-.703124-.351563-1.410156-.507813-2.113281l-.109374-.46875c-.0625-.253906-.125-.511719-.175782-.769531-.148437-.726562-.257812-1.4375-.371094-2.152344l-.082031-.5c-.042969-.25-.085937-.503906-.125-.753906-.109375-.828125-.179687-1.644531-.25-2.457031l-.03125-.300781c-.023437-.234376-.050781-.46875-.066406-.703126-.078125-1.167968-.117187-2.328124-.117187-3.5v-81.269531h-11.1875c-3.117188 0-6-.3125-8.570313-.933593-9.25-2.238282-16.3125-7.941407-19.023437-15.324219-.066407-.140625-.128907-.289063-.183594-.445313-.566406-.945312-3.816406-3.234375-12.855469-3.199218h-11.832031c-20.632813 0-37.691406 12.191406-38.03125 27.171874-.230469 10.433594 7.726562 20.277344 20.28125 25.078126 1.195312.457031 2.101562 1.460937 2.433594 2.699218.332031 1.238282.050781 2.5625-.753907 3.554688-2.386719 2.945312-3.59375 6.039062-3.59375 9.199218 0 2.929688 1.0625 5.832032 3.15625 8.617188 1 1.335938 1.070313 3.15625.167969 4.5625s-2.582031 2.105469-4.21875 1.75c-31.332031-6.8125-53.21875-29.425781-53.21875-54.992188 0-31.46875 32.621094-57.074218 72.714844-57.074218h68.460937c1.6875-.222656 12.261719-1.707032 23.289063-4.988282 5.664062-1.898437 14.5-5.621093 23.839844-12.351562.007812-.003906.015624-.011719.023437-.019531.171875-.152344 1.117187-.972657 2.953125-2.171875 5.8125-3.796875 22.730469-12.621094 54.21875-12.621094s48.40625 8.824219 54.21875 12.621094c1.835938 1.199218 2.78125 2.019531 2.953125 2.171875.007813.003906.015625.011719.023437.019531 9.335938 6.730469 18.175782 10.453125 23.96875 12.390625 10.910157 3.242187 21.472657 4.722656 23.160157 4.949219h68.460937c40.09375 0 72.714844 25.605468 72.714844 57.074218 0 25.519532-21.839844 48.121094-53.105469 54.960938-1.632812.363281-3.3125-.335938-4.214843-1.742188-.90625-1.40625-.839844-3.226562.160156-4.5625 2.082031-2.78125 3.136718-5.675781 3.136718-8.597656 0-3.171875-1.210937-6.273437-3.613281-9.222656-.808593-.996094-1.089843-2.316406-.761719-3.554688.332032-1.238281 1.234376-2.242187 2.429688-2.703124 12.511719-4.8125 20.445312-14.644532 20.210938-25.046876-.339844-14.984374-17.394532-27.171874-38.027344-27.171874h-11.820313c-.058593 0-.125 0-.183593 0-8.863282 0-12.121094 2.253906-12.6875 3.195312-.050782.160156-.117188.3125-.1875.457031-2.710938 7.375-9.773438 13.078125-19.015626 15.3125-2.574218.621094-5.457031.933594-8.574218.933594h-11.183594v81.269531c0 1.171875-.042969 2.335938-.117188 3.488282-.019531.246093-.042968.480468-.070312.714843l-.03125.308594c-.066406.808594-.140625 1.625-.246094 2.433594-.039062.269531-.082031.519531-.125.773437l-.0625.367188c-.132812.84375-.246094 1.558594-.386718 2.265625-.054688.277343-.117188.535156-.179688.789062l-.078125.339844c-.191406.832031-.347656 1.539063-.539063 2.234375-.0625.242188-.132812.472656-.207031.703125l-.09375.316406c-.222656.769531-.453125 1.53125-.710937 2.289063-.070313.203125-.144532.40625-.222656.605468l-.105469.285157c-.28125.789062-.570313 1.570312-.890625 2.34375l-.347656.796875c-.339844.792968-.695313 1.585937-1.078126 2.375l-.347656.6875c-.398437.792968-.824218 1.605468-1.273437 2.410156l-.3125.53125c-.488281.84375-.984375 1.664062-1.5 2.476562l-.179688.273438c-.660156 1.003906-1.230469 1.835938-1.828125 2.660156-.011718.015625-.140625.191406-.15625.210938-.707031.957031-1.351562 1.796875-2.023437 2.625-.015625.019531-.136719.164062-.152344.179687-.730469.890625-1.453125 1.730469-2.199219 2.554688-.007812.011719-.136718.148437-.148437.160156-.753907.828125-1.546875 1.65625-2.363281 2.46875-.925782.914063-1.789063 1.726563-2.671876 2.519531-.007812.007813-.019531.015625-.027343.027344-.003907.003906-.011719.007812-.015625.011719-.902344.808593-1.828125 1.597656-2.773438 2.371093-.4375.351563-.878906.703126-1.320312 1.046876v40.0625c0 6.8125-1.519532 13.46875-4.515625 19.792968-1.636719 3.457032-3.722657 6.804688-6.199219 9.949219-1.214844 1.542969-2.539062 3.058594-3.9375 4.503906-.703125.722657-1.421875 1.429688-2.164062 2.125-.058594.054688-.117188.105469-.179688.15625l-3.96875 3.292969c-3.96875 18.644531-9.03125 61.9375 20.292969 91.019531 1.152343 1.144531 1.5 2.863281.882812 4.363281-.605469 1.496094-2.066406 2.472657-3.6875 2.472657zm-150.617187-8h141.632812c-25.847656-32.152344-20-75.09375-16.007812-92.929688.195312-.863281.667968-1.640625 1.351562-2.207031l4.9375-4.09375c.613282-.578125 1.210938-1.167969 1.792969-1.769531 1.207031-1.246094 2.347656-2.550781 3.394531-3.882813 2.105469-2.675781 3.875-5.511718 5.257813-8.429687 2.484375-5.242188 3.746093-10.75 3.746093-16.367188v-42.050781c0-1.273438.605469-2.46875 1.625-3.222656.902344-.664063 1.78125-1.339844 2.636719-2.039063.855469-.695312 1.683594-1.402343 2.488281-2.125.011719-.007812.023438-.019531.035157-.03125.789062-.707031 1.554687-1.429687 2.300781-2.167969.796875-.792968 1.5-1.523437 2.175781-2.269531.785157-.859375 1.417969-1.59375 2.03125-2.34375l3.273438 2.324219-3.105469-2.523438c.59375-.726562 1.15625-1.464843 1.707031-2.210937.007813-.011719.117188-.160156.128907-.167969.597656-.824218 1.097656-1.554687 1.578124-2.292968l.15625-.238282c.542969-.832031.972657-1.550781 1.390626-2.277344l.269531-.460937c.390625-.699219.753906-1.398437 1.109375-2.097656l.296875-.582031c.324219-.671876.628906-1.359376.925781-2.042969l.300781-.683594c.265625-.648437.511719-1.316406.753907-1.988281l.28125-.769532c.222656-.644531.410156-1.296874.605468-1.949218l.261719-.871094c.15625-.578125.289063-1.171875.421875-1.765625l.253906-1.089844c.113282-.578125.207032-1.179687.296875-1.78125l.1875-1.113281c.089844-.667969.144531-1.359375.203125-2.050781l.089844-.867188c.0625-.972656.097656-1.957031.097656-2.953125v-82.203125c0-3.957031 3.5-7.0625 7.964844-7.0625h11.222656c2.480469 0 4.734375-.238281 6.691406-.710937 6.78125-1.636719 11.828126-5.613282 13.503907-10.628906.066406-.203126.152343-.398438.25-.585938 1.113281-2.53125 5.308593-7.984375 20.210937-7.972656h11.804688c24.945312 0 45.59375 15.695312 46.027344 34.988281.28125 12.453125-7.761719 24.101563-20.835938 30.703125 1.695312 3.199219 2.570312 6.589844 2.570312 10.007812 0 1.632813-.191406 3.238282-.574218 4.820313 23.097656-7.773437 38.597656-25.386719 38.597656-44.882813 0-27.058593-29.03125-49.074218-64.714844-49.074218h-68.71875c-.164062 0-.328125-.011719-.488281-.03125-.492187-.058594-12.1875-1.53125-24.824219-5.289063-6.5-2.175781-16.25-6.285156-26.496094-13.71875-.171874-.125-.332031-.261719-.480468-.414062-.214844-.171875-.855469-.679688-1.929688-1.382813-5.210937-3.402344-20.503906-11.320312-49.84375-11.320312-29.34375 0-44.632812 7.917968-49.847656 11.320312-1.089844.710938-1.730469 1.222656-1.945312 1.398438-.140626.136718-.316407.289062-.464844.394531-10.246094 7.4375-19.992188 11.542969-26.367188 13.679687-12.769531 3.796876-24.460937 5.269532-24.953125 5.332032-.164062.019531-.328125.027344-.492187.027344h-68.71875c-35.683594 0-64.714844 22.015624-64.714844 49.078124 0 19.539063 15.542969 37.164063 38.703125 44.914063-.386719-1.589844-.582031-3.210937-.582031-4.851563 0-3.402343.871094-6.78125 2.546875-9.96875-13.121094-6.59375-21.191407-18.257812-20.90625-30.742187.429687-19.292969 21.078125-34.992187 46.023437-34.992187h12.027344c14.796875 0 18.894531 5.46875 19.996094 7.984374.09375.183594.175781.375.242187.578126 1.675781 5.015624 6.722657 8.988281 13.503907 10.628906 1.957031.472656 4.207031.710937 6.691406.710937h11.222656c4.464844 0 7.964844 3.105469 7.964844 7.0625v82.207031c0 .996094.035156 1.984376.101562 2.964844l.082032.847656c.0625.699219.117187 1.390626.207031 2.074219l.164062.972657c.113281.726562.207031 1.328124.324219 1.925781l.214844.917969c.167968.746093.296875 1.339843.457031 1.925781l.261719.863281c.191406.652344.378906 1.304688.601562 1.949219l.285156.773437c.242188.667969.488282 1.335938.757813 1.996094l.292969.660156c.300781.699219.605468 1.386719.933594 2.0625l.28125.546875c.367187.730469.730468 1.429688 1.121093 2.121094l.28125.488281c.410157.703125.839844 1.421875 1.296875 2.132813l.238282.359375c.484374.746094.984374 1.46875 1.503906 2.1875l.21875.296875c.535156.722656 1.097656 1.460937 1.691406 2.1875l-2.925781 2.734375 3.09375-2.535156c.613281.75 1.246093 1.484374 1.902343 2.210937.804688.878906 1.507813 1.609375 2.226563 2.332031.824219.808594 1.589844 1.535156 2.378906 2.242188.011719.011718.019531.019531.03125.027344.804688.722656 1.632813 1.429687 2.484375 2.121093.863282.703125 1.742188 1.382813 2.640625 2.042969 1.023438.753906 1.628907 1.949219 1.628907 3.222656v42.050782c0 5.617187 1.257812 11.125 3.746093 16.367187 1.382813 2.917969 3.148438 5.75 5.253907 8.429687 1.046874 1.332032 2.191406 2.636719 3.398437 3.882813.578125.597656 1.179687 1.1875 1.792969 1.765625l4.9375 4.097656c.679687.5625 1.152344 1.339844 1.351562 2.203125 3.992188 17.835938 9.839844 60.777344-16.007812 92.929688zm134.558594-96.230469h.019531zm-210.867188-218.449219c.003906 0 .003906 0 .003906.003907-.003906-.003907-.003906-.003907-.003906-.003907zm0-.011719v.007813c0-.003906 0-.007813 0-.007813zm294.25 0v.007813c0-.003906 0-.007813 0-.007813zm-294.253906-.011718s0 .003906.003906.007812c-.003906-.003906-.003906-.003906-.003906-.007812zm294.257812 0s0 .003906-.003906.007812c.003906-.003906.003906-.003906.003906-.007812zm0 0" fill="#3762cc"/><path d="m212.855469 311.527344c.089843.046875.183593.089844.28125.132812-.097657-.042968-.191407-.085937-.28125-.132812zm0 0" fill="#f9cfcf"/><path d="m277.863281 311.660156c.09375-.042968.191407-.085937.28125-.132812-.089843.046875-.183593.089844-.28125.132812zm0 0" fill="#f9cfcf"/><g fill="#3762cc"><path d="m400.566406 158.96875c-24.90625 0-44.414062-13.03125-44.414062-29.667969s19.507812-29.664062 44.414062-29.664062c24.902344 0 44.410156 13.027343 44.410156 29.664062s-19.507812 29.667969-44.410156 29.667969zm0-51.332031c-19.738281 0-36.414062 9.921875-36.414062 21.667969 0 11.746093 16.675781 21.664062 36.414062 21.664062 19.738282 0 36.410156-9.917969 36.410156-21.664062 0-11.746094-16.671874-21.667969-36.410156-21.667969zm0 0"/><path d="m90.53125 158.96875c-24.902344 0-44.410156-13.03125-44.410156-29.667969s19.507812-29.664062 44.410156-29.664062c24.90625 0 44.414062 13.027343 44.414062 29.664062s-19.507812 29.667969-44.414062 29.667969zm0-51.332031c-19.738281 0-36.410156 9.921875-36.410156 21.667969 0 11.746093 16.671875 21.664062 36.410156 21.664062s36.414062-9.917969 36.414062-21.664062c0-11.746094-16.675781-21.667969-36.414062-21.667969zm0 0"/><path d="m400.566406 158.96875c-24.90625 0-44.414062-13.03125-44.414062-29.667969s19.507812-29.664062 44.414062-29.664062c24.902344 0 44.410156 13.027343 44.410156 29.664062s-19.507812 29.667969-44.410156 29.667969zm0-51.332031c-19.738281 0-36.414062 9.921875-36.414062 21.667969 0 11.746093 16.675781 21.664062 36.414062 21.664062 19.738282 0 36.410156-9.917969 36.410156-21.664062 0-11.746094-16.671874-21.667969-36.410156-21.667969zm0 0"/><path d="m400.566406 158.96875c-24.90625 0-44.414062-13.03125-44.414062-29.667969s19.507812-29.664062 44.414062-29.664062c24.902344 0 44.410156 13.027343 44.410156 29.664062s-19.507812 29.667969-44.410156 29.667969zm0-51.332031c-19.738281 0-36.414062 9.921875-36.414062 21.667969 0 11.746093 16.675781 21.664062 36.414062 21.664062 19.738282 0 36.410156-9.917969 36.410156-21.664062 0-11.746094-16.671874-21.667969-36.410156-21.667969zm0 0"/></g><path d="m399.5 132.71875c0 5.523438-4.476562 10-10 10s-10-4.476562-10-10 4.476562-10 10-10 10 4.476562 10 10zm0 0" fill="#a4c9ff"/><path d="m427.925781 126.71875c0 5.523438-4.476562 10-10 10-5.523437 0-10-4.476562-10-10s4.476563-10 10-10c5.523438 0 10 4.476562 10 10zm0 0" fill="#a4c9ff"/><path d="m453.5 240.050781h-29.507812l-30.839844-69.144531c-1.410156-3.160156-5.894532-3.160156-7.304688 0l-30.84375 69.144531h-29.503906c-17.675781 0-32 14.328125-32 32v128c0 17.675781 14.324219 32 32 32h128c17.675781 0 32-14.324219 32-32v-128c0-17.671875-14.324219-32-32-32zm0 0" fill="#a4c9ff"/><path d="m325.5 412.933594c-6.617188 0-12-5.386719-12-12v-128c0-6.617188 5.382812-12 12-12h128c6.617188 0 12 5.382812 12 12v128c0 6.613281-5.382812 12-12 12zm0 0" fill="#e0ebfc"/><path d="m451.550781 336.933594c0 6.261718-8.796875 11.054687-10.628906 16.707031-1.902344 5.855469 2.328125 14.894531-1.21875 19.765625-3.585937 4.925781-13.511719 3.675781-18.433594 7.257812-4.875 3.546876-6.734375 13.394532-12.589843 15.292969-5.648438 1.835938-12.914063-4.976562-19.179688-4.976562-6.261719 0-13.527344 6.8125-19.179688 4.976562-5.855468-1.902343-7.714843-11.746093-12.589843-15.296875-4.925781-3.582031-14.851563-2.332031-18.433594-7.253906-3.546875-4.875.683594-13.914062-1.21875-19.769531-1.832031-5.648438-10.628906-10.445313-10.628906-16.707031 0-6.261719 8.796875-11.058594 10.628906-16.707032 1.902344-5.855468-2.328125-14.894531 1.21875-19.769531 3.585937-4.921875 13.511719-3.671875 18.433594-7.253906 4.875-3.550781 6.734375-13.394531 12.589843-15.296875 5.648438-1.832032 12.914063 4.980468 19.179688 4.980468 6.261719 0 13.527344-6.8125 19.179688-4.980468 5.855468 1.902344 7.714843 11.75 12.589843 15.296875 4.925781 3.585937 14.851563 2.335937 18.433594 7.257812 3.546875 4.871094-.683594 13.910157 1.21875 19.765625 1.832031 5.652344 10.628906 10.449219 10.628906 16.710938zm0 0" fill="#f9a7a7"/><path d="m411.152344 303.152344c0 6.957031-5.640625 12.601562-12.597656 12.601562-6.960938 0-12.601563-5.644531-12.601563-12.601562 0-6.960938 5.640625-12.601563 12.601563-12.601563 6.957031 0 12.597656 5.640625 12.597656 12.601563zm0 0" fill="#6bdddd"/><path d="m378.992188 319.484375c0 9.039063-7.324219 16.367187-16.363282 16.367187-9.035156 0-16.363281-7.328124-16.363281-16.367187 0-9.035156 7.328125-16.363281 16.363281-16.363281 9.039063 0 16.363282 7.328125 16.363282 16.363281zm0 0" fill="#a4c9ff"/><path d="m409.242188 341.121094c0 7.933594-6.425782 14.359375-14.359376 14.359375-7.929687 0-14.359374-6.425781-14.359374-14.359375 0-7.929688 6.429687-14.359375 14.359374-14.359375 7.933594 0 14.359376 6.429687 14.359376 14.359375zm0 0" fill="#a4c9ff"/><path d="m372.757812 358.605469c0 6.972656-5.65625 12.628906-12.628906 12.628906-6.976562 0-12.632812-5.65625-12.632812-12.628906 0-6.976563 5.65625-12.632813 12.632812-12.632813 6.972656 0 12.628906 5.65625 12.628906 12.632813zm0 0" fill="#6bdddd"/><path d="m434.945312 323.394531c0 5.964844-4.835937 10.800781-10.800781 10.800781-5.964843 0-10.796875-4.835937-10.796875-10.800781 0-5.964843 4.832032-10.796875 10.796875-10.796875 5.964844 0 10.800781 4.832032 10.800781 10.796875zm0 0" fill="#a4c9ff"/><path d="m394.882812 375.425781c0 4.949219-4.011718 8.960938-8.957031 8.960938-4.949219 0-8.960937-4.011719-8.960937-8.960938s4.011718-8.960937 8.960937-8.960937c4.945313 0 8.957031 4.011718 8.957031 8.960937zm0 0" fill="#a4c9ff"/><path d="m433.847656 360.019531c0 6.191407-5.023437 11.210938-11.214844 11.210938-6.195312 0-11.214843-5.019531-11.214843-11.210938 0-6.195312 5.019531-11.214843 11.214843-11.214843 6.191407 0 11.214844 5.019531 11.214844 11.214843zm0 0" fill="#6bdddd"/><path d="m453.5 436.050781h-128c-19.851562 0-36-16.148437-36-36v-128c0-19.847656 16.148438-36 36-36h26.910156l29.785156-66.773437c1.300782-2.921875 4.101563-4.738282 7.304688-4.738282s6.003906 1.816407 7.304688 4.742188l29.785156 66.769531h26.910156c19.851562 0 36 16.152344 36 36v128c0 19.851563-16.148438 36-36 36zm-128-192c-15.441406 0-28 12.5625-28 28v128c0 15.441407 12.558594 28 28 28h128c15.441406 0 28-12.558593 28-28v-128c0-15.4375-12.558594-28-28-28h-29.507812c-1.578126 0-3.007813-.925781-3.648438-2.367187l-30.84375-69.144532-30.84375 69.144532c-.640625 1.441406-2.070312 2.367187-3.648438 2.367187zm0 0" fill="#3762cc"/></svg>