<svg width="120" height="120" viewBox="0 0 120 120" fill="none" xmlns="http://www.w3.org/2000/svg">
<g clip-path="url(#clip0)">
<path d="M118.369 103.748L94.9992 80.3836C93.9445 79.3289 92.5148 78.743 91.0148 78.743H87.1945C93.6633 70.4695 97.507 60.0656 97.507 48.7453C97.507 21.818 75.6844 0 48.7547 0C21.825 0 0 21.818 0 48.7453C0 75.6727 21.8227 97.4906 48.7547 97.4906C60.075 97.4906 70.4836 93.6469 78.757 87.1781V90.9984C78.757 92.4984 79.343 93.9281 80.3977 94.9828L103.767 118.348C105.97 120.551 109.533 120.551 111.713 118.348L118.345 111.715C120.548 109.512 120.548 105.952 118.369 103.748ZM48.7547 82.4906C30.1125 82.4906 15.0047 67.4109 15.0047 48.7453C15.0047 30.1055 30.0867 15 48.7547 15C67.3969 15 82.5047 30.0797 82.5047 48.7453C82.5047 67.3852 67.4227 82.4906 48.7547 82.4906ZM48.7594 26.25C39.2016 26.25 31.4531 33.9961 31.4531 43.5539C31.4531 51.2789 42.7641 65.3625 47.0977 70.4742C47.3009 70.7174 47.5551 70.913 47.8422 71.0473C48.1293 71.1815 48.4424 71.2511 48.7594 71.2511C49.0763 71.2511 49.3894 71.1815 49.6765 71.0473C49.9637 70.913 50.2178 70.7174 50.4211 70.4742C54.7547 65.3625 66.0656 51.2812 66.0656 43.5539C66.0656 33.9961 58.3172 26.25 48.7594 26.25ZM48.7594 48.75C45.6516 48.75 43.1344 46.2305 43.1344 43.125C43.1344 40.0172 45.6539 37.5 48.7594 37.5C51.8648 37.5 54.3844 40.0172 54.3844 43.125C54.3844 46.2305 51.8648 48.75 48.7594 48.75Z" fill="black"/>
</g>
<defs>
<clipPath id="clip0">
<rect width="120" height="120" fill="white"/>
</clipPath>
</defs>
</svg>
